<svg width="573" height="575" viewBox="0 0 573 575" fill="none" xmlns="http://www.w3.org/2000/svg">
<g clip-path="url(#clip0_3_1200)">
<g clip-path="url(#clip1_3_1200)">
<path d="M470.047 440.581C470.219 439.436 474.227 411.757 466.199 402.206C465.4 401.199 464.388 400.382 463.235 399.814C462.083 399.246 460.819 398.94 459.534 398.919C443.318 398.541 441.108 411.516 441.085 411.688L442.997 411.986C443.066 411.516 444.99 400.534 459.488 400.854C460.498 400.869 461.492 401.108 462.398 401.556C463.303 402.004 464.097 402.648 464.722 403.443C472.188 412.341 468.157 440.009 468.157 440.295L470.047 440.581Z" fill="#F1C40F"/>
<path d="M471.02 439.321L472.956 439.252C472.956 439.001 472.314 413.772 484.74 408.561C496.925 403.465 502.41 413.955 502.628 414.402L504.357 413.531C504.3 413.405 497.864 400.934 483.995 406.786C470.345 412.501 470.986 438.222 471.02 439.321Z" fill="#F1C40F"/>
<path d="M470.963 441.303C470.963 440.902 471.089 401.003 478.865 389.333C486.331 378.122 498.333 383.401 498.894 383.607L499.685 381.844C499.547 381.787 485.644 375.648 477.25 388.234C469.154 400.385 469.039 439.608 469.039 441.28L470.963 441.303Z" fill="#F1C40F"/>
<path d="M457.209 399.88C457.209 399.88 464.286 402.492 462.179 408.641C460.072 414.791 437.706 424.937 437.706 424.937C437.706 424.937 428.327 416.348 436.939 402.377C445.551 388.406 457.014 395.471 457.209 399.88Z" fill="#F1C40F"/>
<path d="M479.208 387.226C479.208 387.226 474.192 386.688 474.628 383.63C475.063 380.573 494.165 372.694 505.445 385.428C505.445 385.428 498.219 397.842 487.774 398.026C477.33 398.209 479.208 387.226 479.208 387.226Z" fill="#F1C40F"/>
<path d="M484.419 407.691C484.419 407.691 480.983 404.897 484.694 403.534C488.404 402.171 506.796 402.549 506.979 420.712C506.979 420.712 485.598 424.273 482.93 417.345C480.262 410.416 484.419 407.691 484.419 407.691Z" fill="#F1C40F"/>
<path opacity="0.2" d="M457.209 399.88C457.209 399.88 464.286 402.492 462.179 408.641C460.072 414.791 437.706 424.937 437.706 424.937C437.706 424.937 428.327 416.348 436.939 402.377C445.551 388.406 457.014 395.471 457.209 399.88Z" fill="black"/>
<path opacity="0.2" d="M479.208 387.226C479.208 387.226 474.192 386.688 474.628 383.63C475.063 380.573 494.165 372.694 505.445 385.428C505.445 385.428 498.219 397.842 487.774 398.026C477.33 398.209 479.208 387.226 479.208 387.226Z" fill="black"/>
<path opacity="0.2" d="M484.419 407.691C484.419 407.691 480.983 404.897 484.694 403.534C488.404 402.171 506.796 402.549 506.979 420.712C506.979 420.712 485.598 424.273 482.93 417.345C480.262 410.416 484.419 407.691 484.419 407.691Z" fill="black"/>
<path d="M453.407 477.629H486.595L490.168 441.303H449.834L453.407 477.629Z" fill="#F1C40F"/>
<path opacity="0.5" d="M453.407 477.629H486.595L490.168 441.303H449.834L453.407 477.629Z" fill="white"/>
<path d="M448.059 445.3H491.943V437.283H448.059V445.3Z" fill="#F1C40F"/>
<path opacity="0.2" d="M448.059 445.3H491.943V437.283H448.059V445.3Z" fill="white"/>
<path d="M415.845 451.587L382.851 448.346V401.965H369.773V448.323L336.688 451.587C335.102 451.743 333.63 452.484 332.559 453.665C331.488 454.846 330.895 456.383 330.894 457.977V462.935H421.685V457.977C421.686 456.375 421.087 454.83 420.006 453.647C418.925 452.465 417.44 451.73 415.845 451.587Z" fill="#263238"/>
<path opacity="0.2" d="M415.845 451.587L382.851 448.346V401.965H369.773V448.323L336.688 451.587C335.102 451.743 333.63 452.484 332.559 453.665C331.488 454.846 330.895 456.383 330.894 457.977V462.935H421.685V457.977C421.686 456.375 421.087 454.83 420.006 453.647C418.925 452.465 417.44 451.73 415.845 451.587Z" fill="white"/>
<path d="M334.341 477.639C339.065 477.639 342.895 473.809 342.895 469.085C342.895 464.36 339.065 460.53 334.341 460.53C329.616 460.53 325.786 464.36 325.786 469.085C325.786 473.809 329.616 477.639 334.341 477.639Z" fill="#263238"/>
<path d="M418.158 477.639C422.882 477.639 426.712 473.809 426.712 469.085C426.712 464.36 422.882 460.53 418.158 460.53C413.433 460.53 409.603 464.36 409.603 469.085C409.603 473.809 413.433 477.639 418.158 477.639Z" fill="#263238"/>
<path d="M367.529 370.633H385.107V407.199C385.107 408.453 384.609 409.656 383.722 410.543C382.835 411.43 381.632 411.928 380.378 411.928H372.258C371.004 411.928 369.801 411.43 368.914 410.543C368.027 409.656 367.529 408.453 367.529 407.199V370.633Z" fill="#263238"/>
<path opacity="0.3" d="M367.529 370.633H385.107V407.199C385.107 408.453 384.609 409.656 383.722 410.543C382.835 411.43 381.632 411.928 380.378 411.928H372.258C371.004 411.928 369.801 411.43 368.914 410.543C368.027 409.656 367.529 408.453 367.529 407.199V370.633Z" fill="white"/>
<path d="M407.576 298.152C407.576 298.152 410.073 359.993 392.849 370.632H412.512C412.512 370.632 427.743 349.572 423.437 298.152H407.576Z" fill="#263238"/>
<path opacity="0.3" d="M407.576 298.152C407.576 298.152 410.073 359.993 392.849 370.632H412.512C412.512 370.632 427.743 349.572 423.437 298.152H407.576Z" fill="white"/>
<path d="M419.2 375.374H331.111V367.712C331.111 366.194 331.715 364.737 332.789 363.663C333.862 362.59 335.319 361.986 336.837 361.986H413.474C414.993 361.986 416.449 362.59 417.523 363.663C418.597 364.737 419.2 366.194 419.2 367.712V375.374Z" fill="#263238"/>
<path d="M329.737 375.374H420.563C421.834 375.374 422.865 374.343 422.865 373.072V370.988C422.865 369.716 421.834 368.686 420.563 368.686L329.737 368.686C328.466 368.686 327.435 369.716 327.435 370.988V373.072C327.435 374.343 328.466 375.374 329.737 375.374Z" fill="#263238"/>
<path opacity="0.6" d="M329.737 375.374H420.563C421.834 375.374 422.865 374.343 422.865 373.072V370.988C422.865 369.716 421.834 368.686 420.563 368.686L329.737 368.686C328.466 368.686 327.435 369.716 327.435 370.988V373.072C327.435 374.343 328.466 375.374 329.737 375.374Z" fill="white"/>
<path d="M428.258 264.999H396.766C387.544 264.999 380.069 272.475 380.069 281.696V294.018C380.069 303.24 387.544 310.715 396.766 310.715H428.258C437.48 310.715 444.955 303.24 444.955 294.018V281.696C444.955 272.475 437.48 264.999 428.258 264.999Z" fill="#263238"/>
<path d="M301.244 214.473L294.957 197.902C294.957 197.902 297.66 195.406 295.805 192.875C293.95 190.344 282.36 183.232 280.253 184.48C278.146 185.729 273.439 190.447 275.981 193.069C278.524 195.692 289.724 200.055 289.724 200.055L295.289 221.814L301.244 214.473Z" fill="#E4897B"/>
<path d="M345.14 245.977C345.14 245.977 316.51 240.103 313.452 238.694C310.395 237.285 298.897 203.582 298.897 203.582L290.067 207.705C290.067 207.705 297.168 241.534 304.428 249.573C311.689 257.613 342.678 264.461 342.678 264.461L345.14 245.977Z" fill="#F1C40F"/>
<path opacity="0.2" d="M342.609 264.427L342.082 264.301C340.525 263.946 335.635 262.8 329.829 261.094C320.404 258.357 308.516 254.223 304.371 249.585C297.122 241.568 290.01 207.705 290.01 207.705L298.828 203.582C298.828 203.582 310.337 237.297 313.452 238.694C316.567 240.091 345.14 245.977 345.14 245.977L342.609 264.427Z" fill="black"/>
<path d="M298.977 202.918L300.798 206.434L289.46 210.339L289.895 206.044L298.977 202.918Z" fill="#F1C40F"/>
<path opacity="0.2" d="M342.827 263.957C341.246 263.728 336.287 262.961 330.355 261.667C333.734 255.826 343.628 252.826 343.628 252.826L342.827 263.957Z" fill="black"/>
<path d="M385.451 222.638C385.451 222.638 387.134 238.476 381.271 242.37C375.407 246.264 346.537 241.706 343.262 235.327C339.986 228.948 352.309 211.656 352.309 211.656L385.451 222.638Z" fill="#263238"/>
<path d="M268.652 431.041L276.187 432.862L280.001 422.464L283.459 413.004L274.882 409.351L271.584 420.826L268.652 431.041Z" fill="#E4897B"/>
<path opacity="0.2" d="M271.584 420.826L280.001 422.464L283.459 413.004L274.882 409.351L271.584 420.826Z" fill="black"/>
<path d="M272.34 415.341L282.784 419.224C282.784 419.224 310.647 349.561 316.373 349.366C322.099 349.172 380.401 375.924 395.013 361.059C409.626 346.194 388.497 310.349 388.497 310.349C388.497 310.349 353.351 305.334 350.706 313.27C350.054 315.609 349.557 317.989 349.217 320.393C348.816 322.821 348.541 324.859 348.541 324.859C347.453 324.584 312.17 315.48 298.267 324.859C284.124 334.399 272.34 415.341 272.34 415.341Z" fill="#F1C40F"/>
<path opacity="0.6" d="M272.34 415.341L282.784 419.224C282.784 419.224 310.647 349.561 316.373 349.366C322.099 349.172 380.401 375.924 395.013 361.059C409.626 346.194 388.497 310.349 388.497 310.349C388.497 310.349 353.351 305.334 350.706 313.27C350.054 315.609 349.557 317.989 349.217 320.393C348.816 322.821 348.541 324.859 348.541 324.859C347.453 324.584 312.17 315.48 298.267 324.859C284.124 334.399 272.34 415.341 272.34 415.341Z" fill="white"/>
<path d="M332.417 460.759L339.918 458.847L338.475 448.071L337.135 438.199L327.859 439.035L330.264 450.544L332.417 460.759Z" fill="#E4897B"/>
<path opacity="0.2" d="M330.321 450.774L338.521 448.277L337.158 438.302L327.87 439.093L330.321 450.774Z" fill="black"/>
<path d="M287.101 415.352L271.881 410.187L271.229 416.417L282.772 420.494L287.101 415.352Z" fill="#F1C40F"/>
<path d="M369.773 364.585C369.773 364.585 367.391 364.643 330.527 362.925C330.527 362.925 336.035 409.008 339.047 443.512L328.019 445.391C328.019 445.391 301.679 371.514 301.966 359.776C302.252 348.037 315.708 344.602 315.708 344.602C315.708 344.602 341.968 359.776 369.773 364.585Z" fill="#F1C40F"/>
<path opacity="0.6" d="M369.773 364.585C369.773 364.585 367.391 364.643 330.527 362.925C330.527 362.925 336.035 409.008 339.047 443.512L328.019 445.391C328.019 445.391 301.679 371.514 301.966 359.776C302.252 348.037 315.708 344.602 315.708 344.602C315.708 344.602 341.968 359.776 369.773 364.585Z" fill="white"/>
<path opacity="0.1" d="M369.773 364.585C369.773 364.585 367.391 364.643 330.527 362.925C330.527 362.925 336.035 409.008 339.047 443.512L328.019 445.391C328.019 445.391 301.679 371.514 301.966 359.776C302.252 348.037 315.708 344.602 315.708 344.602C315.708 344.602 341.968 359.776 369.773 364.585Z" fill="black"/>
<path d="M340.651 440.169L325.5 441.898L328.431 447.83L340.697 446.261L340.651 440.169Z" fill="#F1C40F"/>
<path opacity="0.1" d="M348.541 324.859L369.097 329.142C369.097 329.142 357.737 322.866 349.217 320.392C348.816 322.82 348.541 324.859 348.541 324.859Z" fill="black"/>
<path d="M387.65 304.887L388.497 310.349L350.706 313.27L349.709 306.799L387.65 304.887Z" fill="#263238"/>
<path opacity="0.2" d="M387.65 304.887L388.497 310.349L350.706 313.27L349.709 306.799L387.65 304.887Z" fill="black"/>
<path d="M375.73 314.038L377.598 313.846L376.62 304.334L374.752 304.526L375.73 314.038Z" fill="#F1C40F"/>
<path d="M358.941 313.088L367.215 312.556L366.812 306.282L358.538 306.814L358.941 313.088Z" fill="white"/>
<path d="M352.543 315.039L354.411 314.847L353.433 305.334L351.565 305.526L352.543 315.039Z" fill="#F1C40F"/>
<path opacity="0.6" d="M375.73 314.038L377.598 313.846L376.62 304.334L374.752 304.526L375.73 314.038Z" fill="white"/>
<path opacity="0.6" d="M352.543 315.039L354.411 314.847L353.433 305.334L351.565 305.526L352.543 315.039Z" fill="white"/>
<path d="M344.453 245.462C351.531 247.418 358.877 248.226 366.211 247.856C378.351 247.237 392.803 253.089 392.803 253.089L387.604 304.852L349.652 306.765C349.652 306.765 336.952 263.579 344.453 245.462Z" fill="#F1C40F"/>
<path d="M350.557 216.225C350.557 216.225 352.687 191.099 373.69 200.192C400.029 211.644 379.095 242.267 366.211 235.991C353.328 229.715 350.557 216.225 350.557 216.225Z" fill="#263238"/>
<path opacity="0.2" d="M356.443 249.264L357.05 263.465L361.757 256.788C361.757 256.788 360.073 272.489 361.058 281.043C361.058 281.043 361.963 265.709 364.093 256.788L369.097 263.465L376.278 249.356C376.278 249.356 364.654 245.176 356.443 249.264Z" fill="black"/>
<path d="M362.948 251.944L373.816 248.874C367.116 244.294 370.495 233.987 370.495 233.987L359.73 237.766C360.225 239.262 360.608 240.793 360.875 242.347C362.02 249.058 358.974 249.596 358.974 249.596L362.948 251.944Z" fill="#E4897B"/>
<path opacity="0.2" d="M359.73 237.709C360.225 239.205 360.607 240.736 360.875 242.29C366.028 240.217 370.483 233.907 370.483 233.907L359.73 237.709Z" fill="black"/>
<path d="M366.761 205.506C357.222 203.399 353.019 207.796 350.156 217.485C346.571 229.566 347.361 238.888 359.856 238.911C376.827 238.934 382.588 209.01 366.761 205.506Z" fill="#E4897B"/>
<path d="M356.432 218.321C355.358 219.576 354.135 220.695 352.79 221.654C352.982 222.112 353.298 222.508 353.703 222.797C354.107 223.087 354.584 223.258 355.08 223.291L356.432 218.321Z" fill="#DE5753"/>
<path d="M362.444 218.825C362.249 219.603 362.512 220.348 363.039 220.474C363.566 220.6 364.127 220.073 364.322 219.328C364.517 218.584 364.253 217.817 363.726 217.679C363.2 217.542 362.638 218.046 362.444 218.825Z" fill="#263238"/>
<path d="M363.933 217.737L362.409 216.661C362.409 216.661 362.902 218.298 363.933 217.737Z" fill="#263238"/>
<path d="M352.801 216.282C352.607 217.061 352.87 217.805 353.397 217.931C353.923 218.057 354.542 217.53 354.679 216.786C354.817 216.042 354.611 215.274 354.084 215.137C353.557 215 352.996 215.503 352.801 216.282Z" fill="#263238"/>
<path d="M354.29 215.194L352.721 214.152C352.721 214.152 353.259 215.744 354.29 215.194Z" fill="#263238"/>
<path d="M367.815 215.034C367.738 215.036 367.662 215.016 367.596 214.978C367.529 214.94 367.474 214.884 367.437 214.817C367.06 214.228 366.555 213.731 365.961 213.362C365.366 212.994 364.697 212.763 364.001 212.687C363.892 212.672 363.792 212.617 363.722 212.532C363.652 212.447 363.617 212.339 363.623 212.229C363.635 212.118 363.689 212.017 363.775 211.946C363.861 211.875 363.971 211.841 364.081 211.851C364.926 211.932 365.739 212.209 366.458 212.658C367.178 213.107 367.783 213.716 368.227 214.439C368.253 214.488 368.268 214.541 368.273 214.596C368.277 214.651 368.271 214.706 368.254 214.758C368.237 214.81 368.209 214.859 368.173 214.9C368.137 214.942 368.093 214.976 368.044 215C367.971 215.029 367.893 215.041 367.815 215.034Z" fill="#263238"/>
<path d="M357.153 210.717C357.075 210.716 357 210.692 356.935 210.648C356.372 210.378 355.756 210.238 355.132 210.238C354.507 210.238 353.891 210.378 353.328 210.648C353.278 210.669 353.225 210.679 353.172 210.678C353.118 210.678 353.065 210.666 353.016 210.645C352.967 210.624 352.923 210.593 352.886 210.554C352.849 210.515 352.82 210.469 352.801 210.419C352.781 210.369 352.77 210.315 352.771 210.261C352.771 210.206 352.782 210.152 352.804 210.102C352.825 210.052 352.856 210.007 352.895 209.969C352.934 209.931 352.98 209.901 353.03 209.881C353.714 209.563 354.462 209.405 355.217 209.421C355.971 209.437 356.712 209.626 357.382 209.973C357.428 210.002 357.468 210.04 357.499 210.084C357.531 210.129 357.553 210.179 357.565 210.233C357.576 210.286 357.577 210.341 357.568 210.395C357.558 210.448 357.538 210.499 357.508 210.545C357.467 210.6 357.414 210.645 357.352 210.675C357.29 210.705 357.222 210.719 357.153 210.717Z" fill="#263238"/>
<path d="M373.621 223.875C373.621 223.875 370.895 215.057 372.911 209.159C372.911 209.159 355.733 197.261 350.557 216.225C350.557 216.225 352.469 198.795 368.948 202.048C385.428 205.3 380.034 229.246 369.991 234.514C369.991 234.514 375.293 229.384 373.621 223.875Z" fill="#263238"/>
<path d="M371.617 225.604C371.952 224.521 372.703 223.615 373.706 223.084C374.709 222.554 375.881 222.443 376.965 222.776C379.851 223.749 379.908 230.128 372.247 229.956C371.136 229.876 370.769 228.719 371.617 225.604Z" fill="#E4897B"/>
<path d="M353.351 226.91C353.606 228.08 353.774 229.266 353.855 230.461H354.473C357.325 230.701 358.722 229.865 359.409 228.88C359.738 228.391 359.942 227.829 360.005 227.243C360.053 226.912 360.053 226.577 360.005 226.246C358.166 226.879 356.214 227.11 354.279 226.922C353.729 226.956 353.351 226.91 353.351 226.91Z" fill="#263238"/>
<path d="M354.324 226.979L354.496 228.021C357.176 228.238 359.077 228.021 360.004 227.299C360.053 226.969 360.053 226.633 360.004 226.303C358.181 226.929 356.244 227.16 354.324 226.979Z" fill="white"/>
<path d="M354.473 230.518C357.325 230.758 358.722 229.922 359.409 228.937C358.328 228.867 357.242 228.987 356.203 229.292C355.511 229.508 354.906 229.937 354.473 230.518Z" fill="#DE5753"/>
<path d="M366.795 206.273C366.795 206.273 367.162 222.798 377.102 224.791C387.043 226.784 376.186 203.536 376.186 203.536C376.186 203.536 361.413 193.894 351.564 200.696C341.716 207.499 350.579 216.225 350.579 216.225C350.579 216.225 352.629 203.949 366.795 206.273Z" fill="#263238"/>
<path d="M370.586 221.401C370.519 221.401 370.454 221.376 370.403 221.333C363.349 215.79 366.83 205.185 366.864 205.082C366.89 205.011 366.943 204.952 367.011 204.918C367.079 204.883 367.158 204.877 367.231 204.899C367.302 204.925 367.36 204.978 367.392 205.047C367.425 205.115 367.428 205.194 367.403 205.265C367.403 205.368 364.024 215.572 370.758 220.886C370.785 220.912 370.807 220.943 370.822 220.977C370.837 221.012 370.845 221.049 370.845 221.086C370.845 221.124 370.837 221.161 370.822 221.196C370.807 221.23 370.785 221.261 370.758 221.287C370.739 221.317 370.714 221.343 370.684 221.362C370.655 221.382 370.621 221.395 370.586 221.401Z" fill="#263238"/>
<path d="M379.977 228.181C378.717 231.548 375.476 233.438 372.739 232.419C370.002 231.399 368.811 227.838 370.071 224.471C371.331 221.104 374.572 219.215 377.309 220.245C380.046 221.276 381.237 224.826 379.977 228.181Z" fill="#F1C40F"/>
<path opacity="0.4" d="M379.977 228.181C378.717 231.548 375.476 233.438 372.739 232.419C370.002 231.399 368.811 227.838 370.071 224.471C371.331 221.104 374.572 219.215 377.309 220.245C380.046 221.276 381.237 224.826 379.977 228.181Z" fill="black"/>
<path d="M376.77 222.672C376.77 222.672 380.881 204.269 371.663 199.448C372.712 199.585 373.753 199.788 374.777 200.055C375.923 200.398 383.332 207.865 379.61 224.402L376.77 222.672Z" fill="#F1C40F"/>
<path opacity="0.2" d="M376.77 222.672C376.77 222.672 380.881 204.269 371.663 199.448C372.712 199.585 373.753 199.788 374.777 200.055C375.923 200.398 383.332 207.865 379.61 224.402L376.77 222.672Z" fill="black"/>
<path d="M359.592 233.208L358.905 233.105L359.088 231.96C364.146 232.738 369.314 231.642 373.621 228.879L374.297 229.796C369.966 232.666 364.745 233.877 359.592 233.208Z" fill="#F1C40F"/>
<g opacity="0.2">
<path d="M359.592 233.208L358.905 233.105L359.088 231.96C364.146 232.738 369.314 231.642 373.621 228.879L374.297 229.796C369.966 232.666 364.745 233.877 359.592 233.208Z" fill="black"/>
</g>
<path d="M379.587 227.723C378.763 229.945 376.61 231.159 374.812 230.517C373.014 229.876 372.212 227.494 373.048 225.272C373.884 223.051 376.026 221.837 377.824 222.478C379.622 223.119 380.423 225.501 379.587 227.723Z" fill="#F1C40F"/>
<path d="M358.516 233.621L357.588 233.495C357.426 233.474 357.27 233.421 357.129 233.339C356.987 233.257 356.863 233.148 356.764 233.018C356.665 232.888 356.593 232.74 356.552 232.582C356.51 232.424 356.501 232.26 356.523 232.098C356.543 231.935 356.595 231.777 356.676 231.635C356.757 231.492 356.866 231.367 356.996 231.267C357.126 231.167 357.275 231.093 357.433 231.051C357.592 231.009 357.758 230.999 357.92 231.021L358.836 231.147C359.163 231.193 359.459 231.365 359.66 231.626C359.861 231.887 359.952 232.217 359.913 232.545C359.867 232.871 359.695 233.167 359.434 233.368C359.173 233.569 358.843 233.66 358.516 233.621Z" fill="#F1C40F"/>
<path opacity="0.4" d="M358.516 233.621L357.588 233.495C357.426 233.474 357.27 233.421 357.129 233.339C356.987 233.257 356.863 233.148 356.764 233.018C356.665 232.888 356.593 232.74 356.552 232.582C356.51 232.424 356.501 232.26 356.523 232.098C356.543 231.935 356.595 231.777 356.676 231.635C356.757 231.492 356.866 231.367 356.996 231.267C357.126 231.167 357.275 231.093 357.433 231.051C357.592 231.009 357.758 230.999 357.92 231.021L358.836 231.147C359.163 231.193 359.459 231.365 359.66 231.626C359.861 231.887 359.952 232.217 359.913 232.545C359.867 232.871 359.695 233.167 359.434 233.368C359.173 233.569 358.843 233.66 358.516 233.621Z" fill="black"/>
<path d="M370.895 244.901L364.093 251.577L366.818 259.777L376.278 249.356L370.895 244.901Z" fill="#F1C40F"/>
<path d="M361.058 246.299L362.157 251.44L358.642 258.712L356.443 249.265L361.058 246.299Z" fill="#F1C40F"/>
<path d="M369.441 250.696L373.392 236.232C373.392 236.232 371.479 232.636 371.892 231.88C372.304 231.125 374.365 221.413 375.831 220.36C377.297 219.306 383.332 221.104 383.939 222.089C384.546 223.074 378.156 236.232 378.156 236.232L375.865 251.91L369.441 250.696Z" fill="#E4897B"/>
<path d="M392.803 253.089C403.682 264.22 381.889 289.438 369.395 288.361C356.901 287.285 369.716 241.568 369.716 241.568L377.732 242.885C377.732 242.885 374.926 262.674 375.808 264.22C376.69 265.766 389.196 249.39 392.803 253.089Z" fill="#F1C40F"/>
<path opacity="0.2" d="M392.803 253.089C403.682 264.22 381.889 289.438 369.395 288.361C356.901 287.285 369.716 241.568 369.716 241.568L377.732 242.885C377.732 242.885 374.926 262.674 375.808 264.22C376.69 265.766 389.196 249.39 392.803 253.089Z" fill="black"/>
<path d="M369.097 240.137L367.918 243.916L379.061 244.901V241.603L369.097 240.137Z" fill="#F1C40F"/>
<path opacity="0.6" d="M352.206 270.038H347.694C347.194 270.038 346.789 270.443 346.789 270.943V279.463C346.789 279.963 347.194 280.368 347.694 280.368H352.206C352.705 280.368 353.11 279.963 353.11 279.463V270.943C353.11 270.443 352.705 270.038 352.206 270.038Z" fill="white"/>
<path opacity="0.2" d="M352.297 270.726H347.167V277.746H352.297V270.726Z" fill="black"/>
<path d="M350.419 267.553H349.285V271.687H350.419V267.553Z" fill="#263238"/>
<path d="M256.192 445.677C257.334 445.146 258.565 444.831 259.823 444.749C259.823 444.749 264.174 442.196 268.48 432.244H273.324C274.146 432.25 274.945 432.509 275.614 432.987C276.282 433.464 276.786 434.137 277.058 434.912C277.139 435.125 277.185 435.349 277.195 435.576C277.138 436.747 277.012 437.913 276.817 439.069C276.109 442.941 275.164 446.765 273.989 450.521L273.164 450.315L274.653 443.077C275.157 440.627 272.569 442.997 271.378 445.471C270.187 447.944 268.343 450.452 262.983 449.227C256.742 447.693 254.234 446.799 256.192 445.677Z" fill="#F1C40F"/>
<path d="M269.362 429.645C269.362 429.645 263.304 442.311 259.823 444.75C259.823 444.75 264.495 447.533 269.362 441.314C275.649 433.298 277.195 435.531 277.195 435.531C277.063 434.148 276.807 432.78 276.428 431.443C275.489 428.877 269.362 429.645 269.362 429.645Z" fill="#E4897B"/>
<path d="M322.866 475.853C323.855 475.073 324.976 474.476 326.175 474.09C326.175 474.09 329.794 470.574 331.615 459.889L336.322 458.744C337.121 458.56 337.957 458.626 338.717 458.933C339.477 459.241 340.124 459.774 340.571 460.462C340.699 460.652 340.8 460.861 340.868 461.08C341.097 462.214 341.254 463.362 341.338 464.516C341.558 468.43 341.539 472.354 341.281 476.265H340.433L340.17 468.89C340.067 466.382 338.131 469.303 337.547 471.994C336.963 474.685 335.784 477.537 330.287 477.617C323.885 477.685 321.228 477.411 322.866 475.853Z" fill="#F1C40F"/>
<path d="M331.855 457.152C331.855 457.152 328.981 470.895 326.129 474.09C326.129 474.09 331.329 475.693 334.581 468.513C338.795 459.236 340.822 461.046 340.822 461.046C340.37 459.733 339.799 458.464 339.116 457.255C337.627 454.965 331.855 457.152 331.855 457.152Z" fill="#E4897B"/>
<path d="M438.336 179.968H398.357C395.151 179.968 392.551 182.567 392.551 185.774V202.872C392.551 206.078 395.151 208.678 398.357 208.678H438.336C441.543 208.678 444.142 206.078 444.142 202.872V185.774C444.142 182.567 441.543 179.968 438.336 179.968Z" fill="#F1C40F"/>
<path d="M406.374 205.403L394.326 221.779L413.76 206.502L406.374 205.403Z" fill="#F1C40F"/>
<path d="M406.82 194.317C406.822 194.654 406.725 194.983 406.539 195.263C406.354 195.544 406.089 195.763 405.779 195.893C405.469 196.022 405.127 196.057 404.798 195.992C404.468 195.927 404.165 195.765 403.927 195.527C403.689 195.29 403.528 194.987 403.462 194.657C403.397 194.327 403.432 193.985 403.562 193.675C403.691 193.365 403.91 193.1 404.191 192.915C404.471 192.729 404.801 192.632 405.137 192.634C405.583 192.634 406.011 192.811 406.327 193.127C406.643 193.443 406.82 193.871 406.82 194.317Z" fill="white"/>
<path d="M415.627 194.317C415.629 194.654 415.531 194.983 415.346 195.263C415.161 195.544 414.896 195.763 414.586 195.893C414.276 196.022 413.934 196.057 413.604 195.992C413.274 195.927 412.971 195.765 412.734 195.527C412.496 195.29 412.334 194.987 412.269 194.657C412.204 194.327 412.239 193.985 412.368 193.675C412.498 193.365 412.717 193.1 412.998 192.915C413.278 192.729 413.607 192.632 413.943 192.634C414.39 192.634 414.818 192.811 415.134 193.127C415.45 193.443 415.627 193.871 415.627 194.317Z" fill="white"/>
<path d="M424.433 194.317C424.436 194.654 424.338 194.983 424.153 195.263C423.967 195.544 423.703 195.763 423.392 195.893C423.082 196.022 422.741 196.057 422.411 195.992C422.081 195.927 421.778 195.765 421.54 195.527C421.302 195.29 421.141 194.987 421.076 194.657C421.011 194.327 421.045 193.985 421.175 193.675C421.305 193.365 421.524 193.1 421.804 192.915C422.084 192.729 422.414 192.632 422.75 192.634C423.196 192.634 423.625 192.811 423.94 193.127C424.256 193.443 424.433 193.871 424.433 194.317Z" fill="white"/>
<path d="M433.24 194.317C433.242 194.654 433.145 194.983 432.959 195.263C432.774 195.544 432.509 195.763 432.199 195.893C431.889 196.022 431.547 196.057 431.217 195.992C430.888 195.927 430.584 195.765 430.347 195.527C430.109 195.29 429.947 194.987 429.882 194.657C429.817 194.327 429.852 193.985 429.982 193.675C430.111 193.365 430.33 193.1 430.611 192.915C430.891 192.729 431.22 192.632 431.557 192.634C432.003 192.634 432.431 192.811 432.747 193.127C433.063 193.443 433.24 193.871 433.24 194.317Z" fill="white"/>
<path d="M288.216 166.429L259.693 151.065C258.925 150.651 257.967 150.938 257.553 151.706L248.45 168.604C248.036 169.373 248.324 170.331 249.092 170.745L277.615 186.109C278.383 186.523 279.342 186.236 279.756 185.468L288.858 168.57C289.272 167.801 288.985 166.843 288.216 166.429Z" fill="#F1C40F"/>
<path opacity="0.7" d="M288.216 166.429L259.693 151.065C258.925 150.651 257.967 150.938 257.553 151.706L248.45 168.604C248.036 169.373 248.324 170.331 249.092 170.745L277.615 186.109C278.383 186.523 279.342 186.236 279.756 185.468L288.858 168.57C289.272 167.801 288.985 166.843 288.216 166.429Z" fill="white"/>
<path opacity="0.2" d="M256.811 153.102L265.686 169.764C266.027 170.399 266.548 170.919 267.184 171.257C267.82 171.595 268.542 171.737 269.259 171.665L287.823 169.833L268.927 172.616C268.101 172.738 267.258 172.59 266.523 172.194C265.788 171.797 265.201 171.174 264.85 170.417L256.811 153.102Z" fill="black"/>
<path d="M235.155 150.021C235.464 143.654 240.182 130.816 245.92 126.888C251.657 122.96 247.878 128.4 247.878 128.4C247.878 128.4 253.318 123.109 256.181 123.269C259.044 123.429 256.181 126.705 256.181 126.705C256.181 126.705 262.079 123.074 264.793 123.269C267.507 123.464 264.793 126.602 264.793 126.602C264.793 126.602 269.625 123.166 271.584 124.781C273.542 126.396 246.515 144.249 243.503 151.51C240.492 158.77 234.846 156.446 235.155 150.021Z" fill="#F1C40F"/>
<path opacity="0.4" d="M235.155 150.021C235.464 143.654 240.182 130.816 245.92 126.888C251.657 122.96 247.878 128.4 247.878 128.4C247.878 128.4 253.318 123.109 256.181 123.269C259.044 123.429 256.181 126.705 256.181 126.705C256.181 126.705 262.079 123.074 264.793 123.269C267.507 123.464 264.793 126.602 264.793 126.602C264.793 126.602 269.625 123.166 271.584 124.781C273.542 126.396 246.515 144.249 243.503 151.51C240.492 158.77 234.846 156.446 235.155 150.021Z" fill="white"/>
<path d="M258.38 149.059L261.987 151.349C262.044 151.385 262.087 151.438 262.11 151.501C262.133 151.564 262.134 151.633 262.113 151.697C262.091 151.76 262.049 151.815 261.993 151.852C261.937 151.888 261.87 151.905 261.804 151.899L258.013 151.601L258.334 154.51C258.343 154.579 258.33 154.649 258.296 154.709C258.263 154.77 258.211 154.818 258.147 154.846C258.084 154.874 258.014 154.881 257.946 154.866C257.879 154.851 257.818 154.815 257.773 154.762L255.585 152.311L258.38 149.059Z" fill="#F1C40F"/>
<path opacity="0.3" d="M258.38 149.059L261.987 151.349C262.044 151.385 262.087 151.438 262.11 151.501C262.133 151.564 262.134 151.633 262.113 151.697C262.091 151.76 262.049 151.815 261.993 151.852C261.937 151.888 261.87 151.905 261.804 151.899L258.013 151.601L258.334 154.51C258.343 154.579 258.33 154.649 258.296 154.709C258.263 154.77 258.211 154.818 258.147 154.846C258.084 154.874 258.014 154.881 257.946 154.866C257.879 154.851 257.818 154.815 257.773 154.762L255.585 152.311L258.38 149.059Z" fill="white"/>
<path d="M207.705 134.721C207.705 134.721 212.698 131.286 220.245 133.507C220.245 133.507 222.409 143.482 228.353 146.803C231.616 148.624 239.598 148.464 245.92 146.425C253.421 143.997 257.086 143.997 258.448 146.803C259.811 149.609 258.3 152.529 252.562 153.892C246.825 155.255 242.255 165.218 231.868 165.344C221.481 165.47 215.962 155.037 218.584 145.875C216.101 141.192 212.325 137.32 207.705 134.721Z" fill="#F1C40F"/>
<path opacity="0.5" d="M207.705 134.721C207.705 134.721 212.698 131.286 220.245 133.507C220.245 133.507 222.409 143.482 228.353 146.803C231.616 148.624 239.598 148.464 245.92 146.425C253.421 143.997 257.086 143.997 258.448 146.803C259.811 149.609 258.3 152.529 252.562 153.892C246.825 155.255 242.255 165.218 231.868 165.344C221.481 165.47 215.962 155.037 218.584 145.875C216.101 141.192 212.325 137.32 207.705 134.721Z" fill="white"/>
<path d="M255.585 148.692C255.585 148.794 255.555 148.894 255.498 148.979C255.442 149.063 255.361 149.129 255.267 149.168C255.173 149.208 255.069 149.218 254.969 149.198C254.869 149.178 254.778 149.129 254.706 149.057C254.633 148.985 254.584 148.893 254.564 148.793C254.545 148.693 254.555 148.589 254.594 148.495C254.633 148.401 254.699 148.321 254.784 148.264C254.868 148.207 254.968 148.177 255.07 148.177C255.207 148.177 255.338 148.231 255.434 148.328C255.531 148.425 255.585 148.556 255.585 148.692Z" fill="#263238"/>
<path d="M229.452 157.076C223.302 158.748 209.629 158.221 204.132 153.984C198.635 149.746 204.956 151.693 204.956 151.693C204.956 151.693 198.257 148.155 197.512 145.383C196.768 142.612 200.811 144.307 200.811 144.307C200.811 144.307 195.543 139.829 194.855 137.195C194.168 134.561 198.016 136.164 198.016 136.164C198.016 136.164 193.218 132.637 194.191 130.267C195.165 127.896 220.462 148.097 228.284 148.727C236.106 149.357 235.682 155.381 229.452 157.076Z" fill="#F1C40F"/>
<path opacity="0.4" d="M229.452 157.076C223.302 158.748 209.629 158.221 204.132 153.984C198.635 149.746 204.956 151.693 204.956 151.693C204.956 151.693 198.257 148.155 197.512 145.383C196.768 142.612 200.811 144.307 200.811 144.307C200.811 144.307 195.543 139.829 194.855 137.195C194.168 134.561 198.016 136.164 198.016 136.164C198.016 136.164 193.218 132.637 194.191 130.267C195.165 127.896 220.462 148.097 228.284 148.727C236.106 149.357 235.682 155.381 229.452 157.076Z" fill="white"/>
<path d="M189.141 129.213C189.096 129.224 189.049 129.224 189.003 129.213C187.938 128.835 186.85 128.48 185.751 128.148C185.642 128.113 185.551 128.038 185.498 127.937C185.444 127.836 185.432 127.719 185.465 127.609C185.499 127.501 185.575 127.41 185.675 127.356C185.776 127.303 185.894 127.291 186.003 127.323C187.148 127.655 188.213 128.022 189.29 128.468C189.386 128.501 189.467 128.567 189.518 128.654C189.569 128.742 189.588 128.845 189.57 128.945C189.552 129.044 189.499 129.134 189.42 129.198C189.341 129.262 189.242 129.296 189.141 129.293V129.213Z" fill="#F1C40F"/>
<path d="M119.925 222.168C119.812 222.169 119.703 222.124 119.621 222.045C119.54 221.966 119.493 221.858 119.49 221.745C119.49 221.631 119.534 221.522 119.613 221.441C119.693 221.36 119.8 221.313 119.914 221.31C122.192 221.277 124.463 221.055 126.705 220.645C126.817 220.625 126.933 220.65 127.027 220.714C127.121 220.778 127.186 220.877 127.209 220.989C127.22 221.045 127.22 221.102 127.209 221.158C127.198 221.214 127.176 221.267 127.144 221.314C127.112 221.361 127.071 221.401 127.023 221.432C126.975 221.462 126.921 221.483 126.865 221.493C124.575 221.912 122.253 222.138 119.925 222.168ZM113.054 221.802C110.743 221.555 108.449 221.173 106.183 220.657C106.071 220.632 105.973 220.564 105.911 220.468C105.848 220.371 105.827 220.254 105.851 220.141C105.878 220.031 105.947 219.936 106.043 219.876C106.139 219.817 106.255 219.797 106.366 219.821C108.596 220.323 110.852 220.706 113.123 220.966C113.225 220.983 113.317 221.035 113.384 221.114C113.451 221.192 113.488 221.292 113.488 221.395C113.488 221.499 113.451 221.599 113.384 221.677C113.317 221.756 113.225 221.808 113.123 221.825L113.054 221.802ZM133.404 219.512C133.322 219.512 133.241 219.488 133.172 219.444C133.103 219.399 133.048 219.335 133.015 219.26C132.99 219.208 132.976 219.152 132.974 219.095C132.972 219.037 132.981 218.98 133.001 218.927C133.022 218.873 133.053 218.825 133.092 218.783C133.132 218.742 133.18 218.709 133.232 218.687C135.312 217.79 137.243 216.582 138.958 215.103C139.046 215.036 139.156 215.005 139.266 215.016C139.375 215.027 139.477 215.079 139.549 215.162C139.622 215.245 139.661 215.352 139.657 215.462C139.654 215.572 139.609 215.677 139.531 215.755C137.747 217.286 135.743 218.541 133.587 219.477C133.524 219.512 133.454 219.532 133.381 219.535L133.404 219.512ZM99.6323 218.733C99.5872 218.744 99.54 218.744 99.4949 218.733C97.319 218.011 95.1317 217.164 93.013 216.236C92.9192 216.183 92.8486 216.096 92.8151 215.993C92.7817 215.89 92.7877 215.779 92.832 215.68C92.8763 215.582 92.9557 215.503 93.0548 215.46C93.1539 215.416 93.2656 215.412 93.368 215.446C95.4523 216.362 97.6053 217.198 99.7697 217.92C99.8769 217.959 99.9645 218.038 100.014 218.141C100.063 218.244 100.07 218.362 100.033 218.469C100.001 218.549 99.9451 218.616 99.8735 218.663C99.802 218.71 99.7179 218.735 99.6323 218.733ZM87.0351 213.167C86.9679 213.188 86.8962 213.188 86.829 213.167C84.7791 212.022 82.7864 210.785 80.9312 209.491C80.8853 209.459 80.8463 209.418 80.8163 209.37C80.7863 209.323 80.7659 209.27 80.7563 209.215C80.7468 209.159 80.7482 209.103 80.7605 209.048C80.7728 208.993 80.7958 208.942 80.8281 208.896C80.8605 208.85 80.9015 208.811 80.9489 208.781C80.9964 208.751 81.0492 208.73 81.1045 208.721C81.1598 208.711 81.2165 208.713 81.2712 208.725C81.326 208.737 81.3778 208.76 81.4236 208.793C83.2559 210.064 85.2142 211.289 87.2527 212.423C87.302 212.45 87.3454 212.487 87.3802 212.532C87.4151 212.576 87.4407 212.627 87.4557 212.681C87.4706 212.736 87.4745 212.792 87.4672 212.848C87.4599 212.904 87.4415 212.958 87.413 213.007C87.3646 213.081 87.2952 213.139 87.2136 213.174C87.132 213.209 87.042 213.218 86.9549 213.202L87.0351 213.167ZM143.654 210.545C143.587 210.565 143.515 210.565 143.448 210.545C143.398 210.517 143.355 210.48 143.32 210.436C143.285 210.392 143.26 210.341 143.245 210.286C143.23 210.232 143.226 210.175 143.233 210.119C143.24 210.063 143.259 210.009 143.287 209.961C143.642 209.342 143.974 208.701 144.272 208.037C144.91 206.634 145.408 205.173 145.761 203.674C145.791 203.563 145.862 203.467 145.96 203.408C146.058 203.348 146.175 203.328 146.288 203.353C146.398 203.382 146.492 203.454 146.55 203.553C146.608 203.651 146.625 203.769 146.597 203.88C146.223 205.429 145.706 206.939 145.051 208.392C144.742 209.079 144.398 209.755 144.032 210.396C143.983 210.469 143.913 210.526 143.831 210.559C143.749 210.591 143.659 210.598 143.574 210.579L143.654 210.545ZM75.7434 205.254C75.6427 205.252 75.5455 205.216 75.4686 205.151C73.7245 203.61 72.0905 201.95 70.5786 200.181C70.4996 200.099 70.4553 199.991 70.4553 199.877C70.4553 199.764 70.4996 199.655 70.5786 199.574C70.6579 199.495 70.7649 199.451 70.8764 199.451C70.9878 199.451 71.0948 199.495 71.1741 199.574C72.6587 201.305 74.2621 202.932 75.9725 204.441C76.0515 204.522 76.0958 204.631 76.0958 204.744C76.0958 204.858 76.0515 204.967 75.9725 205.048C75.9441 205.11 75.9012 205.164 75.8473 205.206C75.7935 205.248 75.7304 205.276 75.6633 205.288L75.7434 205.254ZM146.952 197.306C146.895 197.306 146.839 197.295 146.787 197.273C146.735 197.251 146.688 197.219 146.648 197.178C146.609 197.138 146.578 197.089 146.557 197.037C146.536 196.984 146.527 196.928 146.528 196.871C146.512 194.594 146.301 192.322 145.898 190.08C145.878 189.968 145.903 189.852 145.967 189.758C146.031 189.664 146.13 189.598 146.242 189.576C146.355 189.559 146.471 189.587 146.565 189.653C146.659 189.719 146.723 189.819 146.746 189.931C147.158 192.222 147.372 194.544 147.387 196.871C147.387 196.986 147.341 197.097 147.26 197.179C147.178 197.26 147.067 197.306 146.952 197.306ZM144.661 183.724C144.569 183.723 144.479 183.693 144.405 183.637C144.33 183.582 144.276 183.504 144.249 183.415C143.665 181.411 142.944 179.281 142.062 176.899C142.04 176.846 142.029 176.788 142.03 176.731C142.031 176.673 142.044 176.617 142.067 176.564C142.091 176.512 142.125 176.464 142.167 176.425C142.21 176.387 142.259 176.357 142.314 176.338C142.42 176.3 142.537 176.306 142.64 176.353C142.742 176.4 142.822 176.485 142.864 176.59C143.757 178.994 144.478 181.17 145.074 183.163C145.106 183.272 145.094 183.39 145.041 183.491C144.987 183.591 144.896 183.667 144.787 183.701L144.661 183.724ZM139.92 170.726C139.841 170.727 139.763 170.704 139.696 170.662C139.629 170.619 139.576 170.558 139.542 170.486C138.81 168.653 137.813 166.546 136.771 164.313V164.199C136.741 164.099 136.748 163.991 136.791 163.896C136.833 163.801 136.908 163.725 137.003 163.68C137.097 163.636 137.204 163.627 137.304 163.655C137.405 163.682 137.492 163.745 137.55 163.832V163.947C138.603 166.237 139.588 168.31 140.321 170.108C140.367 170.216 140.369 170.337 140.326 170.447C140.284 170.556 140.199 170.644 140.092 170.692L139.92 170.726ZM134.194 158.129C134.11 158.132 134.027 158.109 133.955 158.064C133.884 158.019 133.828 157.954 133.794 157.877C132.763 155.484 131.938 153.365 131.286 151.407C131.249 151.299 131.256 151.181 131.305 151.078C131.354 150.975 131.442 150.896 131.549 150.857C131.658 150.821 131.778 150.829 131.881 150.881C131.984 150.932 132.062 151.023 132.099 151.132C132.74 153.067 133.553 155.163 134.584 157.533C134.606 157.585 134.618 157.641 134.619 157.698C134.619 157.754 134.609 157.81 134.587 157.862C134.566 157.915 134.534 157.962 134.494 158.002C134.455 158.042 134.407 158.073 134.355 158.095C134.316 158.135 134.269 158.167 134.217 158.186L134.194 158.129ZM130.003 145.005C129.9 145.004 129.802 144.966 129.724 144.899C129.647 144.832 129.595 144.74 129.579 144.639C129.383 143.411 129.283 142.171 129.281 140.928C129.272 139.818 129.372 138.709 129.579 137.618C129.612 137.517 129.681 137.431 129.774 137.377C129.866 137.323 129.975 137.305 130.08 137.326C130.184 137.348 130.277 137.407 130.341 137.492C130.406 137.578 130.436 137.684 130.427 137.79C130.228 138.824 130.133 139.875 130.14 140.928C130.144 142.128 130.24 143.327 130.427 144.513C130.44 144.624 130.412 144.737 130.346 144.828C130.28 144.92 130.182 144.983 130.072 145.005H130.003ZM132.992 131.996C132.892 131.998 132.795 131.966 132.717 131.904C132.638 131.823 132.594 131.714 132.594 131.6C132.594 131.487 132.638 131.378 132.717 131.297C134.255 129.501 136.125 128.019 138.225 126.934C138.326 126.88 138.443 126.868 138.553 126.901C138.662 126.933 138.754 127.006 138.81 127.106C138.859 127.208 138.868 127.325 138.834 127.434C138.8 127.542 138.725 127.634 138.626 127.69C136.626 128.724 134.845 130.136 133.381 131.847C133.343 131.91 133.29 131.962 133.225 131.998C133.161 132.035 133.089 132.053 133.015 132.053L132.992 131.996ZM179.166 126.384H179.075C176.876 125.926 174.597 125.537 172.295 125.239C172.239 125.232 172.185 125.214 172.137 125.186C172.088 125.158 172.045 125.12 172.011 125.075C171.977 125.03 171.952 124.979 171.938 124.925C171.924 124.87 171.921 124.814 171.929 124.758C171.936 124.702 171.954 124.648 171.982 124.599C172.01 124.551 172.047 124.508 172.092 124.474C172.137 124.44 172.188 124.415 172.243 124.401C172.297 124.387 172.354 124.383 172.41 124.391C174.7 124.689 176.99 125.079 179.281 125.537C179.384 125.56 179.474 125.62 179.536 125.706C179.598 125.791 179.626 125.896 179.616 126.001C179.607 126.106 179.559 126.204 179.483 126.276C179.406 126.349 179.306 126.391 179.201 126.396L179.166 126.384ZM144.81 125.411C144.755 125.417 144.698 125.412 144.645 125.396C144.591 125.38 144.541 125.354 144.497 125.319C144.454 125.284 144.417 125.241 144.391 125.191C144.364 125.142 144.347 125.088 144.341 125.033C144.335 124.977 144.34 124.921 144.356 124.867C144.371 124.813 144.397 124.763 144.433 124.72C144.468 124.676 144.511 124.64 144.56 124.613C144.609 124.586 144.663 124.569 144.719 124.563C146.98 124.056 149.277 123.723 151.59 123.567C151.704 123.561 151.815 123.599 151.901 123.674C151.986 123.749 152.039 123.854 152.048 123.968C152.053 124.024 152.046 124.081 152.028 124.135C152.01 124.189 151.982 124.239 151.945 124.282C151.907 124.324 151.862 124.359 151.811 124.384C151.759 124.409 151.704 124.423 151.647 124.426C149.373 124.573 147.114 124.898 144.891 125.399L144.81 125.411ZM165.424 124.609C163.431 124.472 161.061 124.323 158.553 124.277C158.439 124.274 158.332 124.227 158.252 124.145C158.173 124.064 158.129 123.955 158.129 123.842C158.129 123.785 158.14 123.729 158.162 123.677C158.184 123.625 158.217 123.578 158.257 123.538C158.298 123.499 158.346 123.468 158.399 123.447C158.451 123.426 158.508 123.416 158.564 123.418C161.095 123.475 163.489 123.613 165.435 123.75C165.492 123.753 165.548 123.767 165.599 123.792C165.65 123.817 165.695 123.852 165.733 123.894C165.77 123.937 165.799 123.987 165.816 124.041C165.834 124.095 165.841 124.152 165.836 124.208C165.845 124.312 165.816 124.415 165.755 124.499C165.694 124.583 165.605 124.642 165.504 124.666L165.424 124.609Z" fill="#F1C40F"/>
<path d="M66.8337 194.684C66.7569 194.685 66.6812 194.666 66.6146 194.627C66.548 194.589 66.4931 194.533 66.4558 194.466C65.8766 193.461 65.3603 192.42 64.9098 191.351C64.8873 191.299 64.8754 191.244 64.8748 191.187C64.8742 191.131 64.8848 191.075 64.9062 191.022C64.9275 190.97 64.9591 190.923 64.999 190.883C65.039 190.843 65.0865 190.811 65.1388 190.79C65.2438 190.748 65.3611 190.748 65.4658 190.791C65.5706 190.834 65.6546 190.916 65.7 191.019C66.1422 192.055 66.6431 193.064 67.2002 194.042C67.243 194.106 67.2671 194.181 67.2699 194.257C67.2726 194.334 67.2539 194.41 67.2158 194.477C67.1777 194.543 67.1218 194.598 67.0543 194.635C66.9867 194.671 66.9104 194.688 66.8337 194.684Z" fill="#F1C40F"/>
<path d="M205.918 285.201H162.446V294.11H205.918V285.201Z" fill="white"/>
<path opacity="0.1" d="M205.918 285.201H162.446V294.11H205.918V285.201Z" fill="black"/>
<path opacity="0.1" d="M180.758 285.201H162.446V294.11H180.758V285.201Z" fill="black"/>
<path opacity="0.1" d="M162.446 286.483H201.143L162.446 287.583V286.483Z" fill="black"/>
<path opacity="0.1" d="M205.918 288.029L172.375 288.865H205.918V288.029Z" fill="black"/>
<path opacity="0.1" d="M164.222 290.526L180.758 289.85L205.071 290.526L180.758 290.904L164.222 290.526Z" fill="black"/>
<path opacity="0.1" d="M162.446 292.415H191.099L162.446 293.091V292.415Z" fill="black"/>
<path opacity="0.1" d="M205.85 293.091L186.713 293.446H205.918L205.85 293.091Z" fill="black"/>
<path d="M199.871 276.291H156.4V285.201H199.871V276.291Z" fill="white"/>
<path opacity="0.1" d="M199.871 276.291H156.4V285.201H199.871V276.291Z" fill="black"/>
<path opacity="0.1" d="M174.711 276.291H156.4V285.201H174.711V276.291Z" fill="black"/>
<path opacity="0.1" d="M156.4 277.573H195.096L156.4 278.661V277.573Z" fill="black"/>
<path opacity="0.1" d="M199.871 279.12L166.329 279.956H199.871V279.12Z" fill="black"/>
<path opacity="0.1" d="M158.163 281.616L174.7 280.929L199.013 281.616L174.7 281.994L158.163 281.616Z" fill="black"/>
<path opacity="0.1" d="M156.4 283.494H185.053L156.4 284.182V283.494Z" fill="black"/>
<path opacity="0.1" d="M199.803 284.181L180.667 284.536H199.872L199.803 284.181Z" fill="black"/>
<path d="M204.83 267.37H161.359V276.279H204.83V267.37Z" fill="white"/>
<path opacity="0.1" d="M204.83 267.37H161.359V276.279H204.83V267.37Z" fill="black"/>
<path opacity="0.1" d="M179.67 267.37H161.359V276.279H179.67V267.37Z" fill="black"/>
<path opacity="0.1" d="M161.359 268.652H200.055L161.359 269.751V268.652Z" fill="black"/>
<path opacity="0.1" d="M204.83 270.198L171.287 271.034H204.83V270.198Z" fill="black"/>
<path opacity="0.1" d="M163.133 272.695L179.67 272.02L203.983 272.695L179.67 273.073L163.133 272.695Z" fill="black"/>
<path opacity="0.1" d="M161.359 274.585H190.011L161.359 275.26V274.585Z" fill="black"/>
<path opacity="0.1" d="M204.773 275.261L185.637 275.616H204.83L204.773 275.261Z" fill="black"/>
<path d="M233.792 293.927L234.915 289.656H281.364L302.745 291.797L303.558 293.927H233.792Z" fill="#263238"/>
<path opacity="0.4" d="M281.364 289.656V293.927H233.792L234.915 289.656H281.364Z" fill="black"/>
<path d="M272.03 269.214C272.093 269.732 272.043 270.257 271.886 270.754C271.728 271.251 271.465 271.709 271.116 272.096C270.767 272.483 270.339 272.791 269.86 272.999C269.382 273.207 268.865 273.311 268.343 273.302H197.203C196.091 273.278 195.025 272.85 194.205 272.097C193.386 271.345 192.868 270.32 192.748 269.214L188.523 223.669C188.477 223.224 188.508 222.775 188.614 222.341C188.812 221.541 189.275 220.832 189.929 220.33C190.582 219.829 191.387 219.565 192.21 219.581H263.396C264.508 219.605 265.574 220.033 266.393 220.785C267.213 221.538 267.731 222.563 267.851 223.669L272.03 269.214Z" fill="#263238"/>
<path opacity="0.4" d="M268.091 273.302H197.203C196.091 273.277 195.025 272.849 194.205 272.097C193.386 271.345 192.868 270.32 192.748 269.213L188.523 223.669C188.477 223.224 188.508 222.775 188.614 222.34H259.502C260.614 222.364 261.68 222.793 262.5 223.545C263.32 224.297 263.838 225.322 263.957 226.429L268.183 271.973C268.228 272.418 268.197 272.867 268.091 273.302Z" fill="black"/>
<path d="M219.214 245.371H233.93L230.013 287.502L253.284 290.995V293.927H204.269V290.995L214.312 287.502L219.214 245.371Z" fill="#263238"/>
<path opacity="0.1" d="M233.93 245.371L223.027 293.263L214.313 292.999L219.214 245.371H233.93Z" fill="white"/>
<path d="M233.861 477.628H226.852L214.244 302.127H223.554L233.861 477.628Z" fill="#263238"/>
<path opacity="0.4" d="M233.872 477.628H226.852L214.862 310.853L214.244 302.413H223.554L224.058 310.853L233.872 477.628Z" fill="white"/>
<path opacity="0.2" d="M224.058 310.429H214.862L214.244 302.413H223.554L224.058 310.429Z" fill="black"/>
<path d="M285.349 477.628H278.34L277.195 302.127H286.494L285.349 477.628Z" fill="#263238"/>
<path opacity="0.5" d="M286.506 302.413L286.322 330.733L285.36 477.628H278.34L277.378 330.733L277.195 302.413H286.506Z" fill="white"/>
<path opacity="0.2" d="M286.506 302.413L286.322 331.043H277.378L277.195 302.413H286.506Z" fill="black"/>
<path d="M359.833 477.628H352.824L340.215 302.127H349.526L359.833 477.628Z" fill="#263238"/>
<path opacity="0.5" d="M359.844 477.628H352.824L340.834 310.853L340.215 302.413H349.526L350.03 310.853L359.844 477.628Z" fill="white"/>
<path opacity="0.2" d="M350.03 310.429H340.834L340.215 302.413H349.526L350.03 310.429Z" fill="black"/>
<path d="M153.606 477.628H146.597L156.904 302.127H166.214L153.606 477.628Z" fill="#263238"/>
<path opacity="0.5" d="M166.214 302.413L165.596 310.853L153.606 477.628H146.597L156.4 310.853L156.904 302.413H166.214Z" fill="white"/>
<path opacity="0.2" d="M156.904 302.413H166.214L165.596 310.429H156.4L156.904 302.413Z" fill="black"/>
<path d="M149.529 297.752H356.901V304.062C356.901 304.387 356.837 304.708 356.713 305.008C356.588 305.309 356.406 305.581 356.177 305.811C355.947 306.041 355.674 306.223 355.374 306.347C355.074 306.471 354.752 306.535 354.427 306.535H152.002C151.346 306.535 150.717 306.275 150.253 305.811C149.789 305.347 149.529 304.718 149.529 304.062V297.752Z" fill="#F1C40F"/>
<path opacity="0.6" d="M149.529 297.752H356.901V304.062C356.901 304.387 356.837 304.708 356.713 305.008C356.588 305.309 356.406 305.581 356.177 305.811C355.947 306.041 355.674 306.223 355.374 306.347C355.074 306.471 354.752 306.535 354.427 306.535H152.002C151.346 306.535 150.717 306.275 150.253 305.811C149.789 305.347 149.529 304.718 149.529 304.062V297.752Z" fill="white"/>
<path opacity="0.2" d="M356.901 297.74H149.529V302.138H356.901V297.74Z" fill="black"/>
<path d="M361.253 298.897H145.177C144.521 298.897 143.892 298.637 143.428 298.173C142.964 297.709 142.703 297.08 142.703 296.424C142.703 295.767 142.963 295.136 143.427 294.671C143.891 294.205 144.52 293.942 145.177 293.939H361.253C361.91 293.942 362.539 294.205 363.003 294.671C363.466 295.136 363.726 295.767 363.726 296.424C363.726 297.08 363.466 297.709 363.002 298.173C362.538 298.637 361.909 298.897 361.253 298.897Z" fill="#F1C40F"/>
<path opacity="0.6" d="M361.253 298.897H145.177C144.521 298.897 143.892 298.637 143.428 298.173C142.964 297.709 142.703 297.08 142.703 296.424C142.703 295.767 142.963 295.136 143.427 294.671C143.891 294.205 144.52 293.942 145.177 293.939H361.253C361.91 293.942 362.539 294.205 363.003 294.671C363.466 295.136 363.726 295.767 363.726 296.424C363.726 297.08 363.466 297.709 363.002 298.173C362.538 298.637 361.909 298.897 361.253 298.897Z" fill="white"/>
<path d="M310.131 286.3L312.788 282.315C313.05 281.924 313.404 281.603 313.82 281.381C314.235 281.159 314.699 281.043 315.17 281.044H318.537C318.816 281.045 319.094 281.087 319.361 281.17L331.375 284.811C332.057 285.015 332.638 285.469 333.001 286.083L334.73 288.98L310.131 286.3Z" fill="#F1C40F"/>
<path opacity="0.2" d="M334.73 288.98L317.22 287.079L310.108 286.3L312.765 282.315C313.027 281.924 313.381 281.603 313.797 281.381C314.213 281.159 314.676 281.043 315.147 281.044H318.514C318.797 281.046 319.079 281.088 319.35 281.17L319.614 281.25L331.352 284.811C332.038 285.014 332.623 285.468 332.989 286.083L334.73 288.98Z" fill="black"/>
<path opacity="0.2" d="M334.73 288.98L317.22 287.079L319.613 281.25L331.352 284.811C332.038 285.014 332.623 285.468 332.989 286.083L334.73 288.98Z" fill="black"/>
<path d="M343.044 293.549V293.927H305.917L307.291 288.556C307.546 287.57 308.122 286.696 308.929 286.074C309.736 285.452 310.727 285.116 311.746 285.121H328.214C328.761 285.118 329.304 285.215 329.817 285.407L331.878 286.174L340.055 289.221C340.938 289.548 341.698 290.139 342.233 290.913C342.768 291.688 343.051 292.608 343.044 293.549Z" fill="#F1C40F"/>
<path opacity="0.2" d="M343.044 293.549V293.927H327.802L328.615 288.121C328.667 287.761 328.799 287.417 329.002 287.115C329.204 286.813 329.472 286.56 329.785 286.374C330.097 286.189 330.448 286.075 330.81 286.043C331.173 286.01 331.538 286.059 331.879 286.186L340.055 289.232C340.936 289.558 341.695 290.148 342.23 290.92C342.764 291.692 343.049 292.61 343.044 293.549Z" fill="black"/>
<path d="M330.172 289.987L335.028 275.432C335.075 275.283 335.154 275.147 335.26 275.033C335.366 274.918 335.495 274.828 335.639 274.769C335.783 274.71 335.939 274.684 336.094 274.691C336.25 274.699 336.402 274.741 336.539 274.813C336.751 274.934 336.918 275.119 337.017 275.342C337.115 275.564 337.141 275.812 337.089 276.05L333.001 291.579C333.001 291.579 330.287 292.678 330.172 289.987Z" fill="#263238"/>
<path opacity="0.2" d="M310.131 292.725H307.978L308.39 290.606H310.543L310.131 292.725Z" fill="black"/>
<path opacity="0.2" d="M313.338 292.645H311.185L311.597 290.526H313.75L313.338 292.645Z" fill="black"/>
</g>
</g>
<defs>
<clipPath id="clip0_3_1200">
<rect width="572.5" height="572.5" fill="white"/>
</clipPath>
<clipPath id="clip1_3_1200">
<rect width="572.5" height="572.5" fill="white"/>
</clipPath>
</defs>
</svg>
