<svg width="23" height="21" viewBox="0 0 23 21" fill="none" xmlns="http://www.w3.org/2000/svg">
<path d="M15.9689 3.45596L19.544 7.03109C19.7029 7.18998 19.7029 7.42832 19.544 7.58722L10.8843 16.247L7.18998 16.6442C6.7133 16.7237 6.27634 16.2867 6.35579 15.81L6.75302 12.1157L15.4128 3.45596C15.5717 3.29706 15.81 3.29706 15.9689 3.45596ZM22.4041 2.54231C23 3.13817 23 4.13126 22.4041 4.72712L21.0138 6.11744C20.8549 6.27634 20.6166 6.27634 20.4577 6.11744L16.8826 2.54231C16.7237 2.38342 16.7237 2.14508 16.8826 1.98618L18.2729 0.595855C18.8687 0 19.8618 0 20.4577 0.595855L22.4041 2.54231ZM15.2539 13.9033C15.2539 13.7444 15.2936 13.6252 15.3731 13.5458L16.962 11.9568C17.2798 11.6788 17.7962 11.8774 17.7962 12.3143V18.5509C17.7962 19.6235 16.9223 20.4577 15.8895 20.4577H1.90674C0.834197 20.4577 0 19.6235 0 18.5509V4.56822C0 3.53541 0.834197 2.66149 1.90674 2.66149H13.228C13.6649 2.66149 13.8636 3.17789 13.5855 3.49568L11.9965 5.08463C11.9171 5.16408 11.7979 5.2038 11.639 5.2038H2.54231V17.9154H15.2539V13.9033Z" fill="#222222"/>
</svg>
