<svg width="21" height="21" viewBox="0 0 21 21" fill="none" xmlns="http://www.w3.org/2000/svg">
<path d="M20.2237 1.10311C20.6732 1.22568 21 1.59339 21 2.0428C21 12.5428 12.5019 21 2.0428 21C1.55253 21 1.18482 20.714 1.06226 20.2646L0.0817121 16.0156C0 15.5661 0.20428 15.0759 0.653696 14.8716L5.22957 12.9105C5.63813 12.7471 6.08755 12.8696 6.37354 13.1965L8.41634 15.6887C11.6031 14.177 14.177 11.5623 15.6479 8.4572L13.1556 6.4144C12.8288 6.1284 12.7062 5.67899 12.8696 5.27043L14.8307 0.694553C15.035 0.245136 15.5253 0 15.9747 0.122568L20.2237 1.10311Z" fill="#777777"/>
</svg>
