<svg width="18" height="20" viewBox="0 0 18 20" fill="none" xmlns="http://www.w3.org/2000/svg">
<path d="M8.75 10C5.97656 10 3.75 7.77344 3.75 5C3.75 2.26562 5.97656 0 8.75 0C11.4844 0 13.75 2.26562 13.75 5C13.75 7.77344 11.4844 10 8.75 10ZM12.2266 11.25C15.1172 11.25 17.5 13.6328 17.5 16.5234V18.125C17.5 19.1797 16.6406 20 15.625 20H1.875C0.820312 20 0 19.1797 0 18.125V16.5234C0 13.6328 2.34375 11.25 5.23438 11.25H5.89844C6.75781 11.6797 7.73438 11.875 8.75 11.875C9.76562 11.875 10.7031 11.6797 11.5625 11.25H12.2266Z" fill="#777777"/>
</svg>
