<svg width="22" height="25" viewBox="0 0 22 25" fill="none" xmlns="http://www.w3.org/2000/svg">
<path d="M10.9375 12.5C7.4707 12.5 4.6875 9.7168 4.6875 6.25C4.6875 2.83203 7.4707 0 10.9375 0C14.3555 0 17.1875 2.83203 17.1875 6.25C17.1875 9.7168 14.3555 12.5 10.9375 12.5ZM15.2832 14.0625C18.8965 14.0625 21.875 17.041 21.875 20.6543V22.6562C21.875 23.9746 20.8008 25 19.5312 25H2.34375C1.02539 25 0 23.9746 0 22.6562V20.6543C0 17.041 2.92969 14.0625 6.54297 14.0625H7.37305C8.44727 14.5996 9.66797 14.8438 10.9375 14.8438C12.207 14.8438 13.3789 14.5996 14.4531 14.0625H15.2832Z" fill="#222222"/>
</svg>
