<svg width="15" height="15" viewBox="0 0 15 15" fill="none" xmlns="http://www.w3.org/2000/svg">
<path d="M10.2786 7.47911L14.4568 11.6992C15 12.2006 15 13.0362 14.4568 13.5376L13.5376 14.4568C13.0362 15 12.2006 15 11.6992 14.4568L7.52089 10.2786L3.30084 14.4568C2.79944 15 1.96379 15 1.4624 14.4568L0.543175 13.5376C0 13.0362 0 12.2006 0.543175 11.6992L4.72145 7.47911L0.543175 3.30084C0 2.79944 0 1.96379 0.543175 1.4624L1.4624 0.543175C1.96379 0 2.79944 0 3.30084 0.543175L7.52089 4.72145L11.6992 0.543175C12.2006 0 13.0362 0 13.5376 0.543175L14.4568 1.4624C15 1.96379 15 2.79944 14.4568 3.30084L10.2786 7.47911Z" fill="white"/>
</svg>
