<svg width="573" height="575" viewBox="0 0 573 575" fill="none" xmlns="http://www.w3.org/2000/svg">
<g clip-path="url(#clip0_3_562)">
<g clip-path="url(#clip1_3_562)">
<path d="M512.213 469.28H535.38" stroke="#263238" stroke-width="1.09175" stroke-linecap="round" stroke-linejoin="round"/>
<path d="M329.485 469.28H355.195" stroke="#263238" stroke-width="1.09175" stroke-linecap="round" stroke-linejoin="round"/>
<path d="M127.552 469.28H213.866" stroke="#263238" stroke-width="1.09175" stroke-linecap="round" stroke-linejoin="round"/>
<path d="M94.0436 469.28H113.581" stroke="#263238" stroke-width="1.09175" stroke-linecap="round" stroke-linejoin="round"/>
<path d="M182.499 205.288C182.499 205.288 183.93 214.61 176.029 218.561C176.029 218.561 185.568 220.6 186.45 229.819C186.45 229.819 186.633 217.221 192.107 215.698C192.107 215.698 184.698 215.584 182.499 205.288Z" fill="white"/>
<path d="M295.999 206.457C295.999 206.457 295.553 212.183 290.273 213.408C290.273 213.408 295.633 215.95 294.854 221.527C294.854 221.527 296.721 214.095 300.179 213.958C300.237 213.958 295.862 212.847 295.999 206.457Z" fill="white"/>
<path d="M302.333 186.988C302.333 186.988 301.874 192.714 296.607 193.94C296.607 193.94 301.955 196.482 301.187 202.059C301.187 202.059 303.054 194.627 306.513 194.49C306.524 194.49 302.149 193.379 302.333 186.988Z" fill="white"/>
<path d="M168.551 187.401C168.551 187.401 168.15 195.921 162.905 198.543C165.174 199.227 167.193 200.562 168.711 202.382C170.23 204.201 171.181 206.426 171.448 208.781C171.448 208.781 170.303 199.242 176.212 197.226C174.316 196.219 172.653 194.824 171.333 193.131C170.013 191.438 169.065 189.485 168.551 187.401Z" fill="white"/>
<path d="M431.602 494.932C473.2 494.932 506.922 487.379 506.922 478.063C506.922 468.747 473.2 461.194 431.602 461.194C390.004 461.194 356.282 468.747 356.282 478.063C356.282 487.379 390.004 494.932 431.602 494.932Z" fill="white" stroke="#263238" stroke-width="1.09175" stroke-linecap="round" stroke-linejoin="round"/>
<path d="M432.026 488.484C468.482 488.484 498.035 482.424 498.035 474.948C498.035 467.472 468.482 461.412 432.026 461.412C395.57 461.412 366.017 467.472 366.017 474.948C366.017 482.424 395.57 488.484 432.026 488.484Z" stroke="#263238" stroke-width="1.09175" stroke-linecap="round" stroke-linejoin="round"/>
<path d="M387.226 456.934C384.252 455.5 380.859 455.191 377.675 456.063C376.102 456.524 374.682 457.398 373.562 458.595C372.442 459.791 371.663 461.266 371.308 462.866C371.116 464.403 371.283 465.965 371.795 467.427C372.308 468.889 373.152 470.213 374.262 471.294C376.505 473.438 379.163 475.098 382.072 476.173C389.968 479.487 398.452 481.174 407.015 481.132C414.195 481.132 421.376 479.849 428.522 480.559C435.393 481.223 441.898 483.674 448.677 484.773C455.603 485.895 462.683 485.611 469.497 483.937C476.528 482.208 484.018 477.948 485.243 470.813C485.564 468.348 485.178 465.842 484.13 463.588C483.082 461.333 481.414 459.423 479.323 458.079C477.205 456.782 474.831 455.963 472.364 455.678C469.898 455.393 467.399 455.65 465.042 456.43C466.29 456.04 464.458 444.978 464.137 443.489C461.847 433.182 449.674 425.887 439.55 426.437C432.747 426.803 425.956 431.419 424.525 438.072C422.235 436.778 418.948 437.271 416.623 438.553C415.467 439.215 414.495 440.154 413.793 441.285C413.091 442.417 412.682 443.706 412.603 445.035C408.126 440.958 401.151 440.008 395.425 441.863C392.971 442.54 390.829 444.05 389.367 446.134C388.484 447.696 387.872 449.396 387.558 451.162C387.134 453.04 387.661 455.078 387.226 456.934Z" fill="#F1C40F"/>
<path d="M386.756 457.141C383.782 455.703 380.387 455.398 377.205 456.282C375.632 456.742 374.212 457.617 373.092 458.813C371.972 460.009 371.194 461.484 370.838 463.084C370.648 464.621 370.817 466.181 371.332 467.641C371.847 469.102 372.693 470.423 373.804 471.501C376.04 473.65 378.695 475.315 381.603 476.391C389.5 479.699 397.983 481.386 406.545 481.35C413.726 481.35 420.917 480.056 428.063 480.766C434.935 481.442 441.428 483.881 448.207 484.992C455.137 486.113 462.221 485.829 469.039 484.156C476.07 482.415 483.56 478.166 484.774 471.02C485.096 468.558 484.712 466.054 483.665 463.801C482.619 461.548 480.954 459.64 478.864 458.297C476.744 457.004 474.368 456.185 471.901 455.898C469.433 455.612 466.933 455.864 464.572 456.637C465.821 456.247 464 445.185 463.668 443.696C461.377 433.389 449.204 426.106 439.08 426.644C432.278 427.01 425.487 431.625 424.055 438.279C421.765 436.996 418.478 437.477 416.165 438.772C415.007 439.432 414.032 440.37 413.328 441.502C412.624 442.634 412.214 443.923 412.134 445.253C407.656 441.165 400.739 440.226 394.956 442.07C392.506 442.755 390.366 444.264 388.898 446.341C388.019 447.909 387.407 449.612 387.088 451.38C386.664 453.247 387.191 455.274 386.756 457.141Z" stroke="#263238" stroke-width="1.09175" stroke-linecap="round" stroke-linejoin="round"/>
<path opacity="0.19" d="M387.249 457.209C384.279 455.773 380.888 455.467 377.709 456.35C376.138 456.81 374.718 457.682 373.599 458.877C372.479 460.071 371.7 461.543 371.342 463.141C371.15 464.679 371.317 466.24 371.829 467.702C372.342 469.165 373.186 470.488 374.296 471.57C376.539 473.713 379.197 475.373 382.107 476.448C390.003 479.761 398.486 481.451 407.049 481.418C414.229 481.418 421.41 480.124 428.556 480.834C435.427 481.51 441.932 483.949 448.711 485.06C455.637 486.184 462.719 485.895 469.531 484.213C476.563 482.483 484.052 478.223 485.278 471.089C485.599 468.625 485.213 466.12 484.164 463.868C483.116 461.615 481.449 459.707 479.357 458.366C477.24 457.067 474.866 456.246 472.4 455.959C469.933 455.672 467.434 455.927 465.076 456.705C466.324 456.316 464.492 445.253 464.16 443.764C461.87 433.457 449.708 426.174 439.573 426.712C432.782 427.079 425.991 431.694 424.559 438.347C422.269 437.065 418.982 437.546 416.657 438.84C415.503 439.5 414.532 440.438 413.83 441.567C413.128 442.697 412.718 443.983 412.638 445.31C408.16 441.233 401.243 440.294 395.46 442.138C393.015 442.828 390.88 444.336 389.413 446.41C388.527 447.974 387.916 449.678 387.604 451.449C387.168 453.315 387.695 455.342 387.249 457.209Z" fill="white"/>
<path opacity="0.2" d="M460.221 436.503C454.873 431.659 446.02 432.38 440.237 436.686C434.454 440.992 431.316 448.081 429.987 455.17C428.808 454.426 427.446 454.026 426.052 454.014C424.658 454.002 423.289 454.378 422.097 455.101C419.73 456.592 417.894 458.792 416.852 461.388C414.8 459.917 412.343 459.118 409.818 459.102C407.293 459.086 404.825 459.852 402.755 461.297C401.333 462.463 399.973 463.702 398.678 465.007C394.825 468.418 389.8 470.204 384.659 469.991C379.517 469.777 374.658 467.581 371.101 463.862C371.101 463.862 367.013 469.668 382.714 476.253C398.414 482.838 408.618 481.979 417.07 480.925C425.521 479.872 436.171 481.773 443.604 484.361C451.036 486.949 472.692 487.121 480.33 478.841C487.969 470.561 487.121 454.426 465.042 455.937C465.088 455.868 465.34 441.13 460.221 436.503Z" fill="black"/>
<path d="M416.211 422.887C413.107 421.467 411.63 417.631 412.111 414.241C412.592 410.851 414.401 407.851 416.463 405.079C418.524 402.308 420.734 399.674 422.04 396.513C427.113 384.145 416.188 369.521 421.055 357.073" stroke="#263238" stroke-width="1.09175" stroke-linecap="round" stroke-linejoin="round"/>
<path d="M460.644 421.937C457.724 421.044 456.063 417.952 455.479 414.951C453.75 405.538 460.232 396.628 461.629 387.203C462.774 379.359 460.404 371.457 458.045 363.876" stroke="#263238" stroke-width="1.09175" stroke-linecap="round" stroke-linejoin="round"/>
<path d="M439.08 419.142C435.977 416.222 436.321 411.126 437.935 407.209C439.55 403.293 442.344 399.834 443.489 395.757C444.145 393.329 444.221 390.78 443.71 388.317C443.198 385.854 442.115 383.546 440.546 381.58" stroke="#263238" stroke-width="1.09175" stroke-linecap="round" stroke-linejoin="round"/>
<path d="M411.675 366.28C411.403 370.591 411.673 374.92 412.477 379.164" stroke="#263238" stroke-width="1.09175" stroke-linecap="round" stroke-linejoin="round"/>
<path d="M411.905 392.608C412.305 396.88 409.477 400.682 407.221 404.335C404.578 408.453 402.791 413.06 401.964 417.883C401.134 422.732 401.915 427.719 404.186 432.083" stroke="#263238" stroke-width="1.09175" stroke-linecap="round" stroke-linejoin="round"/>
<path d="M258.059 220.038L259.204 234.044V234.376C258.242 234.262 257.275 234.205 256.307 234.204C248.703 234.204 236.838 236.701 228.421 238.785C222.512 240.251 218.252 241.511 218.252 241.511L216.981 236.461L212.159 217.588C208.254 214.232 202.299 201.051 202.299 201.051C197.455 200.307 191.431 195.909 190.126 189.759C188.82 183.61 196.39 184.217 196.39 184.217L201.291 181.205L207.43 164.45C207.43 164.45 202.036 151.979 212.652 146.963C223.268 141.947 259.364 159.423 259.364 159.423L263.269 175.811C268.285 177.849 262.983 190.126 262.983 190.126C262.983 190.126 263.464 190.32 264.014 197.57C264.564 204.819 258.059 220.038 258.059 220.038Z" fill="white"/>
<path d="M246 181.112C247.603 187.205 253.249 191.545 253.043 193.114C252.779 195.13 250.294 197.855 248.038 197.89" stroke="#263238" stroke-width="1.09175" stroke-linecap="round" stroke-linejoin="round"/>
<path d="M257.12 171.31C257.12 171.31 252.161 167.267 248.325 172.455" stroke="#263238" stroke-width="2.1835" stroke-linecap="round" stroke-linejoin="round"/>
<path d="M228.685 202.093C228.685 202.093 231.204 208.666 241.282 208.448" stroke="#263238" stroke-width="1.09175" stroke-linecap="round" stroke-linejoin="round"/>
<path d="M235.132 176.474C231.513 174.241 226.497 174.436 223.841 179.372" stroke="#263238" stroke-width="2.1835" stroke-linecap="round" stroke-linejoin="round"/>
<path d="M234.594 186.072C234.926 187.858 234.433 189.507 233.449 189.633C232.464 189.759 231.433 188.488 231.089 186.736C230.746 184.984 231.261 183.358 232.235 183.186C233.208 183.014 234.25 184.297 234.594 186.072Z" fill="#263238"/>
<path d="M255.242 182.087C255.574 183.873 255.081 185.522 254.097 185.648C253.112 185.774 252.081 184.503 251.738 182.751C251.394 180.999 251.909 179.372 252.883 179.189C253.856 179.006 254.898 180.277 255.242 182.087Z" fill="#263238"/>
<path d="M201.829 188.614C201.829 188.614 193.447 181.33 190.79 186.323C188.133 191.316 196.756 202.906 204.853 199.367" stroke="#263238" stroke-width="1.09175" stroke-linecap="round" stroke-linejoin="round"/>
<path d="M258.208 161.358C258.208 161.358 258.849 182.35 261.174 187.022C263.499 191.694 265.491 194.019 263.041 206.204C260.59 218.389 251.245 232.624 241.282 233.574C231.319 234.525 208.426 219.339 201.944 200.409" stroke="#263238" stroke-width="1.09175" stroke-linecap="round" stroke-linejoin="round"/>
<path d="M202.059 189.473C202.059 189.473 208.14 186.323 207.04 180.872C205.941 175.421 206.708 174.745 211.071 171.94C215.435 169.134 212.732 163.339 208.552 157.636C204.372 151.933 212.32 145.108 218.79 147.971C225.26 150.834 262.136 165.343 272.042 161.037C281.948 156.731 279.108 142.966 265.766 135.27C265.766 135.27 258.563 126.67 260.498 118.757C262.434 110.843 216.236 86.943 194.581 135.614C194.581 135.614 184.274 139.634 182.155 153.468C180.048 167.084 194.947 184.697 194.947 184.697C194.947 184.697 200.215 187.411 202.059 189.473Z" fill="#263238"/>
<path d="M208.289 145.497C211.724 140.916 217.977 139.278 223.6 140.08C229.223 140.882 234.33 143.756 239.129 146.791C243.927 149.826 248.645 153.147 254.016 155.025C257.034 156.239 260.349 156.506 263.521 155.792C264.759 155.463 265.915 154.879 266.913 154.076C267.911 153.273 268.73 152.27 269.316 151.131" stroke="white" stroke-width="1.09175" stroke-linecap="round" stroke-linejoin="round"/>
<path d="M198.68 141.798C194.558 142.073 190.962 145.165 189.359 148.978C187.896 152.877 187.795 157.155 189.072 161.118C189.916 163.909 191.069 166.598 192.508 169.134" stroke="white" stroke-width="1.09175" stroke-linecap="round" stroke-linejoin="round"/>
<path d="M258.872 218.16C258.269 220.51 258.076 222.947 258.3 225.363C258.427 228.202 258.744 231.03 259.25 233.826" stroke="#263238" stroke-width="1.09175" stroke-linecap="round" stroke-linejoin="round"/>
<path d="M212.113 216.763C214.095 223.772 216.293 232.212 218.32 241.602" stroke="#263238" stroke-width="1.09175" stroke-linecap="round" stroke-linejoin="round"/>
<path d="M259.49 179.52C259.49 179.52 261.368 174.413 264.919 176.68C268.469 178.948 262.811 190.423 262.811 190.423" stroke="#263238" stroke-width="1.09175" stroke-linecap="round" stroke-linejoin="round"/>
<path d="M264.678 157.831C264.678 157.831 266.453 172.272 262.147 176.83L258.849 177.849L257.109 158.667L264.678 157.831Z" fill="#263238"/>
<path d="M180.002 139.714C180.002 139.714 168.39 138.901 157.167 125.548C145.944 112.195 155.014 102.816 160.602 97.7998C166.191 92.7838 179.979 79.03 185.74 72.6054C191.5 66.1809 203.043 58.0499 216.087 60.18C229.131 62.3101 241.831 70.2119 254.234 73.8537C266.636 77.4954 278.993 91.0317 280.814 99.8611C282.635 108.691 278.718 122.536 274.172 125.869L266.35 125.628L269.786 137.481C269.786 137.481 223.313 119.1 181.8 153.605L185.316 141.26L180.002 139.714Z" fill="white"/>
<path d="M201.36 123.944C201.36 129.224 201.44 134.503 201.773 139.76L182.476 154.097L187.194 130.85L201.36 123.944Z" fill="#F1C40F"/>
<path opacity="0.6" d="M201.36 123.944C201.36 129.224 201.601 135.087 201.921 140.344L182.453 154.086L187.171 130.838L201.36 123.944Z" fill="white"/>
<path d="M203.65 60.5461C204.583 60.2577 205.581 60.2564 206.514 60.5423C207.447 60.8282 208.273 61.3881 208.884 62.1493C210.076 63.6967 210.684 65.6147 210.602 67.5661C210.545 73.922 205.815 79.3044 200.627 82.992C195.439 86.6795 189.507 89.3593 184.949 93.8026C182.351 96.3355 180.286 99.363 178.876 102.707C177.465 106.05 176.739 109.642 176.739 113.271C176.739 116.9 177.465 120.492 178.876 123.835C180.286 127.179 182.351 130.206 184.949 132.739C185.465 133.232 185.991 133.701 186.495 134.217L184.904 140.721C184.904 140.721 164.29 138.03 157.213 125.548C150.135 113.065 152.368 107.224 158.541 99.8951C164.714 92.5658 172.73 88.5805 180.586 77.3919C188.442 66.2033 203.65 60.5461 203.65 60.5461Z" fill="#F1C40F"/>
<path opacity="0.6" d="M203.65 60.5461C204.583 60.2577 205.581 60.2564 206.514 60.5423C207.447 60.8282 208.273 61.3881 208.884 62.1493C210.076 63.6967 210.684 65.6147 210.602 67.5661C210.545 73.922 205.815 79.3044 200.627 82.992C195.439 86.6795 189.507 89.3593 184.949 93.8026C182.351 96.3355 180.286 99.363 178.876 102.707C177.465 106.05 176.739 109.642 176.739 113.271C176.739 116.9 177.465 120.492 178.876 123.835C180.286 127.179 182.351 130.206 184.949 132.739C185.465 133.232 185.991 133.701 186.495 134.217L184.904 140.721C184.904 140.721 164.29 138.03 157.213 125.548C150.135 113.065 152.368 107.224 158.541 99.8951C164.714 92.5658 172.73 88.5805 180.586 77.3919C188.442 66.2033 203.65 60.5461 203.65 60.5461Z" fill="white"/>
<path d="M182.476 154.098C182.476 154.098 214.427 120.979 269.74 138.065L262.938 119.295C262.938 119.295 224.459 108.794 187.194 130.85L182.476 154.098Z" stroke="#263238" stroke-width="1.09175" stroke-linecap="round" stroke-linejoin="round"/>
<path d="M266.613 129.407C270.541 128.777 278.203 124.414 279.943 120.829C281.537 117.155 282.246 113.158 282.016 109.16C282.051 103.464 280.728 97.8428 278.157 92.7606C272.236 81.8011 259.742 76.4301 248.164 71.8378L226.497 63.2374C222.111 61.4967 217.633 59.7331 212.926 59.4239C203.593 58.8169 194.775 64.0047 187.95 70.4292C181.124 76.8538 175.639 84.5724 168.71 90.871C165.332 93.9402 161.621 96.597 158.495 100.033C155.369 103.468 152.769 107.431 152.322 111.977C151.658 118.516 155.506 124.735 160.236 129.304C164.965 133.873 169.581 139.153 184.766 140.951" stroke="#263238" stroke-width="1.09175" stroke-linecap="round" stroke-linejoin="round"/>
<path d="M243.813 116.809C246.965 114.945 249.727 112.487 251.944 109.572" stroke="#263238" stroke-width="1.09175" stroke-linecap="round" stroke-linejoin="round"/>
<path d="M197.822 125.169C195.076 124.217 192.568 122.684 190.469 120.674C188.37 118.664 186.73 116.224 185.66 113.523" stroke="#263238" stroke-width="1.09175" stroke-linecap="round" stroke-linejoin="round"/>
<path d="M201.841 69.5473C196.711 69.1808 192.222 72.9829 188.935 76.8995C185.648 80.8161 182.716 85.4198 178.124 87.7445" stroke="#263238" stroke-width="1.09175" stroke-linecap="round" stroke-linejoin="round"/>
<path d="M386.893 295.003L339.62 331.901C339.62 331.901 321.468 272.763 320.403 265.399C317.494 258.311 306.947 248.405 306.947 248.405C306.947 248.405 268.182 246.492 265.388 244.889C262.594 243.286 262.284 234.021 262.284 234.021C261.277 234.021 260.223 234.021 259.158 234.021C258.093 234.021 257.257 234.113 256.284 234.181C246.994 235.06 237.798 236.742 228.799 239.209C221.435 241.133 216.282 242.85 216.282 242.85L219.145 255.287L217.072 258.402C210.281 263.476 173.073 275.809 163.442 280.161C159.226 283.495 155.182 287.042 151.326 290.788C151.326 290.788 117.955 356.271 112.779 364.264C109.629 369.274 107.921 375.056 107.843 380.973C111.679 389.161 117.314 389.699 123.12 391.703C124.095 392.031 125.051 392.413 125.983 392.849C132.774 396.032 192.656 391.291 192.656 391.291C192.656 391.291 188.35 412.615 207.979 404.507C239.392 391.52 314.483 400.51 314.483 400.51L312.685 352.412L329.702 371.88C329.702 371.88 337.661 376.564 347.235 370.586C361.791 361.184 403.991 309.249 403.991 309.249C399.914 299.618 386.893 295.003 386.893 295.003ZM197.249 369.99L193.813 366.555C187.881 362.959 165.756 358.79 165.756 358.79L181.33 336.287C181.33 336.287 197.764 361.711 198.508 363.864C199.253 366.017 197.249 369.99 197.249 369.99Z" fill="white"/>
<path d="M230.013 421.306L233.54 497.313C233.54 497.313 221.996 494.427 218.79 489.617C215.583 484.807 208.426 412.763 208.426 412.763C208.426 412.763 215.297 419.062 230.013 421.306Z" fill="#F1C40F"/>
<path opacity="0.56" d="M230.013 421.306L233.54 497.313C233.54 497.313 221.996 494.427 218.79 489.617C215.583 484.807 208.426 412.763 208.426 412.763C208.426 412.763 215.297 419.062 230.013 421.306Z" fill="white"/>
<path d="M198.989 365.123L180.941 337.02L196.046 317.036C196.046 317.036 197.191 328.339 203.891 333.584C214.621 341.956 212.262 367.689 212.262 367.689L198.989 365.123Z" fill="#F1C40F"/>
<path opacity="0.6" d="M198.989 365.123L180.941 337.02L196.046 317.036C196.046 317.036 197.191 328.339 203.891 333.584C214.621 341.956 212.262 367.689 212.262 367.689L198.989 365.123Z" fill="white"/>
<path d="M308.745 291.911C308.745 291.911 321.846 350.19 329.439 359.478C337.032 368.765 337.192 332.554 339.872 332.05C342.552 331.546 347.029 353.271 345.3 359.833C345.3 359.833 346.331 363.268 350.133 359.833C353.935 356.397 401.174 312.639 401.174 312.639C401.174 312.639 352.629 374.056 338.75 373.678C327.011 375.304 314.334 354.324 314.334 354.324L308.745 291.911Z" fill="#F1C40F"/>
<path opacity="0.6" d="M308.745 291.911C308.745 291.911 321.846 350.19 329.439 359.478C337.032 368.765 337.192 332.554 339.872 332.05C342.552 331.546 347.029 353.271 345.3 359.833C345.3 359.833 346.331 363.268 350.133 359.833C353.935 356.397 401.174 312.639 401.174 312.639C401.174 312.639 352.629 374.056 338.75 373.678C327.011 375.304 314.334 354.324 314.334 354.324L308.745 291.911Z" fill="white"/>
<path d="M168.103 355.183L165.194 359.076C165.194 359.076 141.913 356.156 123.12 391.657C117.314 389.653 111.668 389.115 107.843 380.927C107.921 375.01 109.629 369.228 112.779 364.218C117.955 356.202 151.715 289.998 151.715 289.998C155.176 286.209 159.118 282.89 163.442 280.127C187.491 267.415 210.281 263.452 217.072 258.368L219.145 255.253L216.282 242.816C216.282 242.816 221.435 241.098 228.799 239.174L232.601 255.402C233.227 258.086 232.864 260.906 231.579 263.344C230.293 265.782 228.172 267.674 225.604 268.675L170.634 289.872C167.086 291.234 164.183 293.884 162.503 297.293L132.407 358.08C133.014 357.542 144.982 345.368 168.103 355.183Z" fill="#F1C40F"/>
<path opacity="0.6" d="M168.103 355.183L165.194 359.076C165.194 359.076 141.913 356.156 123.12 391.657C117.314 389.653 111.668 389.115 107.843 380.927C107.921 375.01 109.629 369.228 112.779 364.218C117.955 356.202 151.715 289.998 151.715 289.998C151.715 289.998 158.93 283.459 163.442 280.127C186.243 268.377 210.281 263.452 217.072 258.368L219.145 255.253L216.282 242.816C216.282 242.816 221.435 241.098 228.799 239.174L232.601 255.402C233.227 258.086 232.864 260.906 231.579 263.344C230.293 265.782 228.172 267.674 225.604 268.675L170.634 289.872C167.086 291.234 164.183 293.884 162.503 297.293L132.407 358.08C133.014 357.542 144.982 345.368 168.103 355.183Z" fill="white"/>
<path d="M391.658 292.082L406.156 271.594C406.156 271.594 416.394 264.723 420.104 262.937C423.815 261.15 424.353 257.634 426.117 258.871C427.88 260.108 426.289 267.357 422.578 269.647C418.868 271.938 414.63 274.228 415.157 275.832C415.684 277.435 437.248 275.477 437.248 275.477C437.248 275.477 464.733 275.11 465.134 277.24C465.534 279.37 448.024 282.542 448.024 282.542C448.024 282.542 466.84 282.336 466.886 283.413C466.932 284.489 456.155 288.2 456.155 288.2C456.155 288.2 463.771 288.601 463.404 290.25C463.038 291.899 455.273 294.029 455.273 294.029C455.273 294.029 439.367 303.751 435.805 305.343C432.244 306.935 408.068 303.923 408.068 303.923L403.934 309.271C403.934 309.271 396.937 299.331 389.516 295.094L391.658 292.082Z" fill="white"/>
<path d="M338.292 355.102C339.301 347.529 339.791 339.896 339.757 332.256" stroke="#263238" stroke-width="1.09175" stroke-linecap="round" stroke-linejoin="round"/>
<path d="M259.227 234.135C260.372 234.135 261.598 234.067 262.812 234.055L263.957 241.442C264.139 242.627 264.739 243.709 265.648 244.492C266.557 245.275 267.716 245.708 268.915 245.713L306.192 248.244C308.929 248.244 319.316 262.456 321.079 267.816L339.872 332.107L386.905 294.762C386.905 294.762 396.067 296.01 404.003 309.306C404.003 309.306 373.724 349.606 346.239 371.147C342.22 374.285 333.218 374.983 329.634 371.364C323.587 365.272 318.113 359.821 313.887 354.187" stroke="#263238" stroke-width="1.09175" stroke-linecap="round" stroke-linejoin="round"/>
<path d="M188.774 335.474L198.199 329.393" stroke="#263238" stroke-width="1.09175" stroke-linecap="round" stroke-linejoin="round"/>
<path d="M192.267 337.524C194.761 336.719 197.38 336.37 199.997 336.494" stroke="#263238" stroke-width="1.09175" stroke-linecap="round" stroke-linejoin="round"/>
<path d="M181.353 336.848C187.08 344.834 192.386 353.114 197.249 361.653C198.323 363.567 198.65 365.811 198.165 367.952L175.261 469.165" stroke="#263238" stroke-width="1.09175" stroke-linecap="round" stroke-linejoin="round"/>
<path d="M306.214 276.096L314.105 352.32C314.631 369.429 315.903 380.263 316.658 401.701" stroke="#263238" stroke-width="1.09175" stroke-linecap="round" stroke-linejoin="round"/>
<path d="M218.194 257.818L228.799 325.774L242.999 321.033C252.774 317.77 263.062 316.314 273.359 316.738L287.857 317.345L270.381 245.072H277.012L314.334 354.324L316.624 402.777C316.624 402.777 247.168 387.534 208.254 408.091L211.3 437.866C211.3 437.866 213.155 446.02 215.114 469.76L184.193 469.199H175.261L197.821 370.173C197.821 370.173 217.29 371.605 216.728 355.938C216.167 340.272 210.785 261.551 210.785 261.551L218.194 257.818Z" fill="#263238"/>
<path d="M246.458 257.177C246.458 257.816 246.269 258.44 245.914 258.971C245.559 259.502 245.055 259.916 244.464 260.16C243.874 260.405 243.225 260.469 242.599 260.344C241.972 260.22 241.397 259.912 240.945 259.46C240.493 259.009 240.186 258.433 240.061 257.807C239.937 257.18 240 256.531 240.245 255.941C240.489 255.351 240.903 254.846 241.434 254.492C241.965 254.137 242.59 253.947 243.229 253.947C244.085 253.947 244.906 254.288 245.512 254.893C246.118 255.499 246.458 256.32 246.458 257.177Z" fill="#263238"/>
<path d="M246.916 276.095C248.7 276.095 250.146 274.65 250.146 272.866C250.146 271.082 248.7 269.637 246.916 269.637C245.133 269.637 243.687 271.082 243.687 272.866C243.687 274.65 245.133 276.095 246.916 276.095Z" fill="#263238"/>
<path d="M267.106 359.145C278.779 357.153 290.521 355.603 302.332 354.496" stroke="white" stroke-width="1.09175" stroke-linecap="round" stroke-linejoin="round"/>
<path d="M246.928 363.028C251.722 362.012 256.536 361.069 261.368 360.199" stroke="white" stroke-width="1.09175" stroke-linecap="round" stroke-linejoin="round"/>
<path d="M302.332 358.687C292.835 362.504 283.265 366.127 273.622 369.555" stroke="white" stroke-width="1.09175" stroke-linecap="round" stroke-linejoin="round"/>
<path d="M300.111 277.607C301.098 283.808 302.525 289.931 304.382 295.93" stroke="#263238" stroke-width="1.09175" stroke-linecap="round" stroke-linejoin="round"/>
<path d="M437.466 284.238C437.466 284.238 464.95 279.657 465.145 277.24C465.34 274.824 445.356 276.095 440.649 275.683C435.942 275.271 416.222 277.802 415.569 276.565C414.917 275.328 416.52 275.042 420.86 271.423C425.2 267.804 428.396 261.414 427.227 259.387C426.059 257.36 422.189 261.86 419.211 263.51C416.818 264.849 407.759 269.98 406.121 272.225C404.484 274.469 393.593 289.494 389.47 295.22" stroke="#263238" stroke-width="1.09175" stroke-linecap="round" stroke-linejoin="round"/>
<path d="M438.095 284.009C438.095 284.009 467.046 281.352 466.932 283.459C466.748 286.975 447.337 289.746 439.39 290.33" stroke="#263238" stroke-width="1.09175" stroke-linecap="round" stroke-linejoin="round"/>
<path d="M439.206 290.434C439.206 290.434 463.817 286.998 463.45 290.25C463.084 293.503 435.107 298.805 435.107 298.805" stroke="#263238" stroke-width="1.09175" stroke-linecap="round" stroke-linejoin="round"/>
<path d="M402.984 310.577C405.744 306.615 407.565 303.889 407.565 303.889C407.565 303.889 431.27 306.489 434.671 305.836C438.073 305.183 454.071 294.934 454.071 294.934" stroke="#263238" stroke-width="1.09175" stroke-linecap="round" stroke-linejoin="round"/>
<path d="M413.416 284.1C416.044 284.421 418.541 285.428 420.656 287.02C422.771 288.612 424.429 290.733 425.464 293.17" stroke="#263238" stroke-width="1.09175" stroke-linecap="round" stroke-linejoin="round"/>
<path d="M343.56 334.57C346.228 338.658 346.526 343.8 346.743 348.679" stroke="#263238" stroke-width="1.09175" stroke-linecap="round" stroke-linejoin="round"/>
<path d="M208.426 409.443L216.912 481.877C216.912 481.877 216.511 489.504 222.913 493.329C229.314 497.154 257.372 503.383 273.038 502.41C288.704 501.437 308.539 500.452 315.777 494.897C323.014 489.343 321.319 474.341 321.319 474.341L326.542 428.991C326.542 428.991 331.294 411.676 325.568 406.477C315.101 397.04 226.886 389.871 208.426 409.443Z" fill="white"/>
<path d="M208.426 412.764C211.835 415.718 215.815 417.94 220.118 419.291C226.99 421.353 311.551 418.925 322.041 416.875C332.531 414.825 328.729 406.236 322.888 403.831C317.048 401.426 262.8 393.524 238.842 398.976C217.587 403.808 204.303 404.175 208.426 412.764Z" fill="#F1C40F"/>
<path opacity="0.6" d="M208.426 412.764C211.835 415.718 215.815 417.94 220.118 419.291C226.99 421.353 311.551 418.925 322.041 416.875C332.531 414.825 328.729 406.236 322.888 403.831C317.048 401.426 269.202 394.475 240.343 398.426C219.019 403.236 204.303 404.175 208.426 412.764Z" fill="white"/>
<path d="M328.786 410.679C328.786 412.969 326.347 415.031 322.03 416.874C311.94 421.226 291.613 424.181 268.205 424.181C245.851 424.181 226.314 421.49 215.824 417.47C210.613 415.477 207.624 413.164 207.624 410.679C207.624 403.212 234.754 397.165 268.205 397.165C301.657 397.165 328.786 403.212 328.786 410.679Z" stroke="#263238" stroke-width="1.09175" stroke-linecap="round" stroke-linejoin="round"/>
<path d="M322.03 416.851C311.941 421.203 291.613 424.158 268.205 424.158C245.851 424.158 226.314 421.466 215.824 417.447C223.669 412.545 244.706 409.018 269.431 409.018C293.171 409.041 313.498 412.27 322.03 416.851Z" fill="#263238"/>
<path d="M207.601 410.68L217.072 485.427C217.282 487.135 217.928 488.761 218.946 490.149C219.965 491.536 221.323 492.639 222.89 493.351C234.811 498.734 266.831 509.533 312.524 496.879C314.446 496.334 316.161 495.229 317.452 493.706C318.743 492.182 319.551 490.309 319.774 488.324L322.671 463.416L322.957 460.874L325.305 440.764L325.82 436.321L328.786 410.68" stroke="#263238" stroke-width="1.09175" stroke-linecap="round" stroke-linejoin="round"/>
<path d="M257.75 502.593C256.204 500.619 255.146 498.308 254.663 495.849C254.179 493.389 254.283 490.85 254.967 488.438C254.967 488.438 247.992 491.931 247.786 498.081C247.786 498.081 237.48 495.218 238.751 480.238C238.751 480.238 233.025 489.469 238.144 499.524C243.263 509.578 257.75 502.593 257.75 502.593Z" fill="#263238"/>
<path d="M284.467 502.638C289.5 497.499 292.792 490.91 293.881 483.8C295.318 488.861 295.234 494.234 293.64 499.248C295.852 498.262 297.795 496.761 299.307 494.87C300.819 492.98 301.856 490.754 302.332 488.38C302.332 488.38 303.787 497.542 299.435 502.638C295.083 507.734 284.467 502.638 284.467 502.638Z" fill="#263238"/>
<path d="M346.274 443.192C343.548 452.72 333.791 463.095 322.671 463.393L322.957 460.851C332.497 460.358 341.395 451.082 343.834 442.528C344.43 440.443 345.426 435.336 341.83 433.022C340.954 432.411 339.957 431.993 338.907 431.795C337.857 431.598 336.777 431.626 335.738 431.877C330.31 433.206 326.267 440.088 326.233 440.157C326.138 440.326 326.005 440.47 325.843 440.578C325.682 440.685 325.498 440.753 325.305 440.775L325.82 436.332C327.699 433.881 330.997 430.434 335.131 429.461C336.505 429.133 337.933 429.094 339.323 429.349C340.713 429.603 342.035 430.144 343.205 430.938C346.743 433.16 347.854 437.66 346.274 443.192Z" fill="#263238"/>
<path d="M259.066 414.756C265.273 418.271 272.923 418.466 279.863 416.828C282.31 416.353 284.642 415.412 286.734 414.057" stroke="white" stroke-width="1.09175" stroke-linecap="round" stroke-linejoin="round"/>
<path d="M295.793 415.215C293.87 417.161 291.516 418.628 288.922 419.498" stroke="white" stroke-width="1.09175" stroke-linecap="round" stroke-linejoin="round"/>
<path d="M215.858 465.569C193.172 468.26 190.916 442.047 196.974 437.912C203.032 433.778 215.08 447.956 215.08 447.956" stroke="white" stroke-width="2.1835" stroke-linecap="round" stroke-linejoin="round"/>
<path d="M275.798 414.046L230.757 332.187C230.757 332.187 225.833 329.221 226.176 335.142C226.52 341.062 267.976 414.561 267.976 414.561L275.798 414.046Z" fill="white" stroke="#263238" stroke-width="1.09175" stroke-linecap="round" stroke-linejoin="round"/>
<path d="M258.689 431.739C272.317 432.575 289.609 432.243 304.405 427.674" stroke="#263238" stroke-width="1.09175" stroke-linecap="round" stroke-linejoin="round"/>
<path d="M234.697 428.865C234.697 428.865 239.278 429.793 246.504 430.663" stroke="#263238" stroke-width="1.09175" stroke-linecap="round" stroke-linejoin="round"/>
<path d="M191.912 323.828C182.675 334.245 174.291 345.389 166.844 357.153" stroke="#263238" stroke-width="1.09175" stroke-linecap="round" stroke-linejoin="round"/>
<path d="M161.645 356.706C156.06 355.413 150.227 355.686 144.787 357.496" stroke="#263238" stroke-width="1.09175" stroke-linecap="round" stroke-linejoin="round"/>
<path d="M159.812 288.223C159.812 288.223 180.426 300.03 188.064 318.17" stroke="#263238" stroke-width="1.09175" stroke-linecap="round" stroke-linejoin="round"/>
<path d="M176.876 361.986C177.265 376.782 186.484 391.91 186.484 391.91L220.37 386.733L218.08 380.171C219.225 380.733 221.584 380.538 223.176 380.916C233.151 383.206 249.516 382.782 249.516 382.782C251.958 380.739 253.998 378.257 255.528 375.465C258.288 370.586 255.688 369.258 255.688 369.258C259.685 363.658 256.616 359.615 256.616 359.615C262.525 356.237 260.052 354.393 260.052 354.393C256.25 348.449 233.815 351.015 233.815 351.015L214.152 367.609L200.799 365.318L176.876 361.986Z" fill="white"/>
<path d="M212.331 367.826L215.297 366.853L233.849 351.015C233.849 351.015 258.082 349.732 259.811 354.084C261.54 358.435 256.502 360.451 252.15 362.192" stroke="#263238" stroke-width="1.09175" stroke-linecap="round" stroke-linejoin="round"/>
<path d="M255.906 360.645C255.906 360.645 261.895 363.257 253.615 370.551" stroke="#263238" stroke-width="1.09175" stroke-linecap="round" stroke-linejoin="round"/>
<path d="M255.116 369.44C257.749 367.952 259.479 374.663 250.248 377.892" stroke="#263238" stroke-width="1.09175" stroke-linecap="round" stroke-linejoin="round"/>
<path d="M255.791 375.899L249.023 383.183C249.023 383.183 233.769 384.511 220.061 380.091L218.561 380.526" stroke="#263238" stroke-width="1.09175" stroke-linecap="round" stroke-linejoin="round"/>
<path d="M140.103 370.07C143.334 366.637 147.228 363.894 151.548 362.006C155.868 360.119 160.526 359.126 165.24 359.088C167.186 359.115 169.117 359.435 170.966 360.039C177.597 362.111 204.841 365.203 213.156 368.124L220.382 386.344C191.855 393.558 153.823 394.143 130.965 393.077C125.235 392.633 119.655 391.028 114.565 388.359C113.082 387.598 111.765 386.55 110.689 385.275C109.614 384.001 108.803 382.525 108.302 380.935C107.801 379.344 107.622 377.67 107.773 376.01C107.924 374.349 108.403 372.735 109.183 371.261L150.215 292.243C151.361 290.101 159.377 282.543 161.587 281.65L182.499 271.56C184.737 270.486 187.031 269.53 189.37 268.697L212.491 260.944C214.244 260.234 219.363 256.18 218.859 254.337L216.03 242.782C229.861 237.568 244.454 234.663 259.227 234.181" stroke="#263238" stroke-width="1.09175" stroke-linecap="round" stroke-linejoin="round"/>
<path d="M102.243 226.601H77.4954V241.534H102.243V226.601Z" stroke="#263238" stroke-width="1.09175" stroke-linecap="round" stroke-linejoin="round"/>
<path d="M113.248 245.851H88.5007V260.785H113.248V245.851Z" stroke="#263238" stroke-width="1.09175" stroke-linecap="round" stroke-linejoin="round"/>
<path d="M506.257 221.756H481.51V236.69H506.257V221.756Z" stroke="#263238" stroke-width="1.09175" stroke-linecap="round" stroke-linejoin="round"/>
<path d="M490.832 241.007H466.084V255.94H490.832V241.007Z" stroke="#263238" stroke-width="1.09175" stroke-linecap="round" stroke-linejoin="round"/>
<path d="M142.314 430.159H121.631V435.725H142.314V430.159Z" stroke="#263238" stroke-width="1.09175" stroke-linecap="round" stroke-linejoin="round"/>
<path d="M154.041 412.146H130.85V427.079H154.041V412.146Z" stroke="#263238" stroke-width="1.09175" stroke-linecap="round" stroke-linejoin="round"/>
<path d="M335.829 132.706V69.9486H493.225V180.93H469.772" stroke="#263238" stroke-width="1.09175" stroke-linecap="round" stroke-linejoin="round"/>
<path d="M335.829 155.598V146.173" stroke="#263238" stroke-width="1.09175" stroke-linecap="round" stroke-linejoin="round"/>
<path d="M356.935 180.93H335.829V161.782" stroke="#263238" stroke-width="1.09175" stroke-linecap="round" stroke-linejoin="round"/>
<path d="M378.373 81.1715C378.383 81.6083 378.261 82.0378 378.025 82.4054C377.789 82.7729 377.449 83.0619 377.048 83.2353C376.647 83.4088 376.204 83.4589 375.775 83.3793C375.345 83.2997 374.949 83.094 374.637 82.7884C374.325 82.4828 374.111 82.0912 374.022 81.6634C373.934 81.2357 373.974 80.7913 374.139 80.3868C374.304 79.9824 374.586 79.6362 374.949 79.3926C375.311 79.1489 375.738 79.0187 376.175 79.0186C376.75 79.0184 377.302 79.2438 377.714 79.6463C378.125 80.0488 378.362 80.5964 378.373 81.1715Z" stroke="#263238" stroke-width="1.09175" stroke-linecap="round" stroke-linejoin="round"/>
<path d="M414.562 83.5421C415.776 83.5421 416.761 82.5577 416.761 81.3433C416.761 80.129 415.776 79.1446 414.562 79.1446C413.347 79.1446 412.363 80.129 412.363 81.3433C412.363 82.5577 413.347 83.5421 414.562 83.5421Z" stroke="#263238" stroke-width="1.09175" stroke-linecap="round" stroke-linejoin="round"/>
<path d="M455.537 81.1715C455.546 81.6083 455.425 82.0378 455.189 82.4054C454.953 82.7729 454.613 83.0619 454.212 83.2353C453.811 83.4088 453.367 83.4589 452.938 83.3793C452.508 83.2997 452.112 83.094 451.8 82.7884C451.488 82.4828 451.274 82.0912 451.185 81.6634C451.097 81.2357 451.138 80.7913 451.303 80.3868C451.468 79.9824 451.749 79.6362 452.112 79.3926C452.474 79.1489 452.901 79.0187 453.338 79.0186C453.913 79.0184 454.466 79.2438 454.877 79.6463C455.288 80.0488 455.525 80.5964 455.537 81.1715Z" stroke="#263238" stroke-width="1.09175" stroke-linecap="round" stroke-linejoin="round"/>
<path d="M382.565 165.413C382.11 165.425 381.658 165.345 381.235 165.177C380.813 165.009 380.429 164.756 380.107 164.435C379.786 164.113 379.533 163.729 379.365 163.307C379.197 162.884 379.116 162.432 379.129 161.977L380.206 96.3572C380.32 93.9752 379.507 91.8909 377.125 91.8909H375.499C373.151 91.8909 371.25 92.9674 371.307 95.3265L372.819 162.069C372.831 162.515 372.754 162.96 372.591 163.377C372.429 163.793 372.184 164.172 371.873 164.493C371.561 164.813 371.188 165.068 370.776 165.241C370.364 165.415 369.922 165.504 369.475 165.504H369.246C368.368 165.507 367.526 165.854 366.901 166.471C366.276 167.087 365.917 167.924 365.902 168.802L365.478 199.207C365.469 199.988 365.616 200.763 365.91 201.486C366.204 202.209 366.64 202.866 367.191 203.419C367.743 203.971 368.399 204.408 369.121 204.703C369.844 204.999 370.618 205.147 371.399 205.14L382.21 205.002C382.986 204.993 383.753 204.83 384.465 204.522C385.178 204.214 385.822 203.767 386.361 203.207C386.899 202.648 387.32 201.987 387.601 201.263C387.881 200.539 388.014 199.766 387.993 198.99L387.077 168.631C387.05 167.746 386.673 166.908 386.029 166.3C385.385 165.692 384.526 165.365 383.641 165.39L382.565 165.413Z" stroke="#263238" stroke-width="1.09175" stroke-linecap="round" stroke-linejoin="round"/>
<path d="M374.056 96.6771C374.056 96.2921 374.17 95.9157 374.384 95.5955C374.598 95.2754 374.902 95.0258 375.258 94.8785C375.614 94.7311 376.005 94.6926 376.383 94.7677C376.76 94.8428 377.107 95.0282 377.379 95.3005C377.652 95.5728 377.837 95.9197 377.912 96.2973C377.987 96.675 377.949 97.0664 377.801 97.4221C377.654 97.7779 377.405 98.0819 377.084 98.2959C376.764 98.5098 376.388 98.624 376.003 98.624C375.486 98.624 374.991 98.4188 374.626 98.0537C374.261 97.6886 374.056 97.1934 374.056 96.6771Z" stroke="#263238" stroke-width="1.09175" stroke-linecap="round" stroke-linejoin="round"/>
<path d="M369.028 196.573V179.636" stroke="#263238" stroke-width="1.09175" stroke-linecap="round" stroke-linejoin="round"/>
<path d="M372.27 196.573V179.636" stroke="#263238" stroke-width="1.09175" stroke-linecap="round" stroke-linejoin="round"/>
<path d="M375.98 196.299L375.934 179.647" stroke="#263238" stroke-width="1.09175" stroke-linecap="round" stroke-linejoin="round"/>
<path d="M379.931 196.516V179.579" stroke="#263238" stroke-width="1.09175" stroke-linecap="round" stroke-linejoin="round"/>
<path d="M384.111 196.471V179.533" stroke="#263238" stroke-width="1.09175" stroke-linecap="round" stroke-linejoin="round"/>
<path d="M451.494 97.7194C451.487 97.3325 451.596 96.9523 451.806 96.6274C452.016 96.3025 452.319 96.0477 452.674 95.8954C453.03 95.7431 453.423 95.7003 453.803 95.7724C454.184 95.8445 454.534 96.0283 454.809 96.3003C455.084 96.5723 455.272 96.9202 455.349 97.2995C455.425 97.6788 455.387 98.0724 455.239 98.4299C455.091 98.7875 454.84 99.0928 454.518 99.3069C454.195 99.521 453.816 99.6341 453.429 99.6319C452.921 99.629 452.434 99.4273 452.072 99.0699C451.71 98.7125 451.503 98.2278 451.494 97.7194Z" stroke="#263238" stroke-width="1.09175" stroke-linecap="round" stroke-linejoin="round"/>
<path d="M453.819 169.615L457.907 96.8606C457.939 96.2937 457.854 95.7263 457.658 95.1932C457.463 94.6601 457.161 94.1724 456.771 93.7598C456.381 93.3473 455.911 93.0185 455.39 92.7936C454.868 92.5686 454.307 92.4523 453.739 92.4516H452.983C452.427 92.4515 451.877 92.5622 451.365 92.7772C450.852 92.9923 450.388 93.3074 449.999 93.7041C449.609 94.1007 449.303 94.571 449.098 95.0875C448.893 95.6039 448.792 96.1561 448.803 96.7117L449.719 139.977C449.925 149.902 450.139 159.854 450.361 169.833C450.371 170.263 450.272 170.689 450.071 171.07C449.871 171.451 449.576 171.774 449.215 172.008C446.442 173.943 444.42 176.774 443.489 180.025C442.18 184.402 441.901 189.024 442.676 193.527C443.512 198.36 446.868 203.639 452.113 204.36C457.358 205.082 460.977 200.512 462.316 196.035C463.821 191.295 464.085 186.248 463.084 181.376C462.503 179.156 461.466 177.081 460.037 175.284C458.749 173.881 457.159 172.788 455.388 172.089C454.898 171.896 454.482 171.552 454.2 171.108C453.918 170.663 453.785 170.14 453.819 169.615Z" stroke="#263238" stroke-width="1.09175" stroke-linecap="round" stroke-linejoin="round"/>
<path d="M445.665 192.405V182.682" stroke="#263238" stroke-width="1.09175" stroke-linecap="round" stroke-linejoin="round"/>
<path d="M459.545 192.405V182.682" stroke="#263238" stroke-width="1.09175" stroke-linecap="round" stroke-linejoin="round"/>
<path d="M449.799 194.649V180.208" stroke="#263238" stroke-width="1.09175" stroke-linecap="round" stroke-linejoin="round"/>
<path d="M456.373 194.649V180.208" stroke="#263238" stroke-width="1.09175" stroke-linecap="round" stroke-linejoin="round"/>
<path d="M453.006 199.356V177.987" stroke="#263238" stroke-width="1.09175" stroke-linecap="round" stroke-linejoin="round"/>
<path d="M414.481 99.3692C415.556 99.3692 416.428 98.4976 416.428 97.4224C416.428 96.3471 415.556 95.4755 414.481 95.4755C413.406 95.4755 412.534 96.3471 412.534 97.4224C412.534 98.4976 413.406 99.3692 414.481 99.3692Z" stroke="#263238" stroke-width="1.09175" stroke-linecap="round" stroke-linejoin="round"/>
<path d="M417.138 161.473L420.196 95.9443C420.214 95.3834 420.12 94.8245 419.918 94.3008C419.717 93.777 419.412 93.2991 419.022 92.8954C418.632 92.4917 418.165 92.1704 417.649 91.9505C417.132 91.7306 416.577 91.6167 416.016 91.6155H413.141C412.574 91.6162 412.012 91.7325 411.491 91.9575C410.969 92.1824 410.499 92.5112 410.109 92.9238C409.719 93.3363 409.417 93.824 409.222 94.3572C409.027 94.8903 408.942 95.4576 408.973 96.0245L412.534 161.999C412.569 162.449 412.481 162.9 412.28 163.303C412.078 163.707 411.77 164.048 411.389 164.29C407.954 166.454 398.426 173.52 398.197 185.774C397.91 200.764 414.848 207.429 424.536 201.875C434.041 196.447 440.89 174.012 418.57 163.935C418.106 163.722 417.72 163.371 417.464 162.93C417.208 162.49 417.094 161.98 417.138 161.473Z" stroke="#263238" stroke-width="1.09175" stroke-linecap="round" stroke-linejoin="round"/>
<path d="M416.268 197.616C416.85 197.616 417.322 197.144 417.322 196.562C417.322 195.98 416.85 195.508 416.268 195.508C415.686 195.508 415.215 195.98 415.215 196.562C415.215 197.144 415.686 197.616 416.268 197.616Z" stroke="#263238" stroke-width="1.09175" stroke-linecap="round" stroke-linejoin="round"/>
<path d="M408.458 193.917C408.442 193.768 408.458 193.618 408.504 193.477C408.551 193.335 408.626 193.204 408.726 193.093C408.826 192.983 408.948 192.894 409.084 192.833C409.22 192.773 409.368 192.741 409.517 192.741C409.666 192.741 409.814 192.773 409.95 192.833C410.086 192.894 410.208 192.983 410.308 193.093C410.408 193.204 410.484 193.335 410.53 193.477C410.576 193.618 410.592 193.768 410.576 193.917C410.549 194.179 410.426 194.421 410.23 194.598C410.035 194.774 409.78 194.871 409.517 194.871C409.254 194.871 409 194.774 408.804 194.598C408.608 194.421 408.485 194.179 408.458 193.917Z" stroke="#263238" stroke-width="1.09175" stroke-linecap="round" stroke-linejoin="round"/>
<path d="M423.139 194.97C423.721 194.97 424.192 194.498 424.192 193.916C424.192 193.334 423.721 192.863 423.139 192.863C422.557 192.863 422.085 193.334 422.085 193.916C422.085 194.498 422.557 194.97 423.139 194.97Z" stroke="#263238" stroke-width="1.09175" stroke-linecap="round" stroke-linejoin="round"/>
<path d="M416.268 190.733C416.85 190.733 417.322 190.261 417.322 189.679C417.322 189.097 416.85 188.625 416.268 188.625C415.686 188.625 415.215 189.097 415.215 189.679C415.215 190.261 415.686 190.733 416.268 190.733Z" stroke="#263238" stroke-width="1.09175" stroke-linecap="round" stroke-linejoin="round"/>
<path d="M408.458 187.034C408.455 186.822 408.516 186.615 408.631 186.439C408.747 186.262 408.913 186.124 409.107 186.041C409.301 185.959 409.516 185.936 409.723 185.976C409.931 186.016 410.121 186.116 410.272 186.265C410.422 186.413 410.524 186.603 410.566 186.81C410.608 187.017 410.588 187.232 410.508 187.427C410.427 187.622 410.291 187.789 410.115 187.907C409.94 188.024 409.734 188.087 409.523 188.087C409.242 188.087 408.973 187.976 408.773 187.779C408.574 187.582 408.461 187.314 408.458 187.034Z" stroke="#263238" stroke-width="1.09175" stroke-linecap="round" stroke-linejoin="round"/>
<path d="M423.139 188.088C423.721 188.088 424.192 187.616 424.192 187.034C424.192 186.452 423.721 185.98 423.139 185.98C422.557 185.98 422.085 186.452 422.085 187.034C422.085 187.616 422.557 188.088 423.139 188.088Z" stroke="#263238" stroke-width="1.09175" stroke-linecap="round" stroke-linejoin="round"/>
<path d="M416.268 183.861C416.85 183.861 417.322 183.39 417.322 182.808C417.322 182.226 416.85 181.754 416.268 181.754C415.686 181.754 415.215 182.226 415.215 182.808C415.215 183.39 415.686 183.861 416.268 183.861Z" stroke="#263238" stroke-width="1.09175" stroke-linecap="round" stroke-linejoin="round"/>
<path d="M408.458 180.162C408.442 180.014 408.458 179.864 408.504 179.722C408.551 179.58 408.626 179.45 408.726 179.339C408.826 179.228 408.948 179.14 409.084 179.079C409.22 179.018 409.368 178.987 409.517 178.987C409.666 178.987 409.814 179.018 409.95 179.079C410.086 179.14 410.208 179.228 410.308 179.339C410.408 179.45 410.484 179.58 410.53 179.722C410.576 179.864 410.592 180.014 410.576 180.162C410.549 180.424 410.426 180.667 410.23 180.843C410.035 181.02 409.78 181.117 409.517 181.117C409.254 181.117 409 181.02 408.804 180.843C408.608 180.667 408.485 180.424 408.458 180.162Z" stroke="#263238" stroke-width="1.09175" stroke-linecap="round" stroke-linejoin="round"/>
<path d="M423.139 181.216C423.721 181.216 424.192 180.745 424.192 180.163C424.192 179.581 423.721 179.109 423.139 179.109C422.557 179.109 422.085 179.581 422.085 180.163C422.085 180.745 422.557 181.216 423.139 181.216Z" stroke="#263238" stroke-width="1.09175" stroke-linecap="round" stroke-linejoin="round"/>
<path d="M416.268 172.215C416.85 172.215 417.322 171.743 417.322 171.161C417.322 170.579 416.85 170.108 416.268 170.108C415.686 170.108 415.215 170.579 415.215 171.161C415.215 171.743 415.686 172.215 416.268 172.215Z" stroke="#263238" stroke-width="1.09175" stroke-linecap="round" stroke-linejoin="round"/>
<path d="M408.458 173.807C408.442 173.955 408.458 174.105 408.504 174.247C408.551 174.389 408.626 174.519 408.726 174.63C408.826 174.741 408.948 174.83 409.084 174.89C409.22 174.951 409.368 174.982 409.517 174.982C409.666 174.982 409.814 174.951 409.95 174.89C410.086 174.83 410.208 174.741 410.308 174.63C410.408 174.519 410.484 174.389 410.53 174.247C410.576 174.105 410.592 173.955 410.576 173.807C410.549 173.545 410.426 173.302 410.23 173.126C410.035 172.95 409.78 172.852 409.517 172.852C409.254 172.852 409 172.95 408.804 173.126C408.608 173.302 408.485 173.545 408.458 173.807Z" stroke="#263238" stroke-width="1.09175" stroke-linecap="round" stroke-linejoin="round"/>
<path d="M423.139 174.861C423.721 174.861 424.192 174.389 424.192 173.807C424.192 173.225 423.721 172.754 423.139 172.754C422.557 172.754 422.085 173.225 422.085 173.807C422.085 174.389 422.557 174.861 423.139 174.861Z" stroke="#263238" stroke-width="1.09175" stroke-linecap="round" stroke-linejoin="round"/>
</g>
</g>
<defs>
<clipPath id="clip0_3_562">
<rect width="572.5" height="572.5" fill="white"/>
</clipPath>
<clipPath id="clip1_3_562">
<rect width="572.5" height="572.5" fill="white"/>
</clipPath>
</defs>
</svg>
