<svg width="26" height="26" viewBox="0 0 26 26" fill="none" xmlns="http://www.w3.org/2000/svg">
<path d="M25.4951 22.365C25.9495 22.8699 25.9495 23.6272 25.4447 24.0816L24.0311 25.4951C23.5767 26 22.8194 26 22.3146 25.4951L17.3165 20.4971C17.0641 20.2447 16.9631 19.9417 16.9631 19.6388V18.7806C15.1456 20.1942 12.9243 21.0019 10.501 21.0019C4.69515 21.0019 0 16.3068 0 10.501C0 4.74563 4.69515 0 10.501 0C16.2563 0 21.0019 4.74563 21.0019 10.501C21.0019 12.9748 20.1437 15.1961 18.7806 16.9631H19.5883C19.8913 16.9631 20.1942 17.1146 20.4466 17.3165L25.4951 22.365ZM10.501 16.9631C14.035 16.9631 16.9631 14.0854 16.9631 10.501C16.9631 6.96699 14.035 4.03883 10.501 4.03883C6.9165 4.03883 4.03883 6.96699 4.03883 10.501C4.03883 14.0854 6.9165 16.9631 10.501 16.9631Z" fill="#222222"/>
<a href="http://127.0.0.1:5500/search.html">
<rect fill="black" fill-opacity="0" y="-1.875" width="25" height="28.75"/>
</a>
</svg>
