<svg width="29" height="25" viewBox="0 0 29 25" fill="none" xmlns="http://www.w3.org/2000/svg">
<path d="M25.7812 14.7461C25.6348 15.2832 25.1465 15.625 24.6094 15.625H10.3027L10.6445 17.1875H23.7305C24.4629 17.1875 25.0488 17.9199 24.8535 18.6523L24.6094 19.8242C25.5371 20.2637 26.1719 21.1914 26.1719 22.2656C26.1719 23.7793 24.9023 25 23.4375 25C21.9238 25 20.7031 23.7793 20.7031 22.2656C20.7031 21.5332 20.9961 20.8496 21.4844 20.3125H11.2793C11.7676 20.8496 12.1094 21.5332 12.1094 22.2656C12.1094 23.7793 10.8398 25 9.375 25C7.86133 25 6.64062 23.7793 6.64062 22.2656C6.64062 21.2891 7.17773 20.4102 8.00781 19.9219L4.54102 3.125H1.17188C0.488281 3.125 0 2.63672 0 1.95312V1.17188C0 0.537109 0.488281 0 1.17188 0H6.15234C6.68945 0 7.17773 0.439453 7.32422 0.976562L7.76367 3.125H26.9043C27.6855 3.125 28.2227 3.85742 28.0762 4.58984L25.7812 14.7461Z" fill="#222222"/>
<a href="http://127.0.0.1:5500/cart.html">
<rect fill="black" fill-opacity="0" y="-1.875" width="28.125" height="28.75"/>
</a>
</svg>
